<svg width="39" height="39" viewBox="0 0 39 39" fill="none" xmlns="http://www.w3.org/2000/svg">
<mask id="path-1-inside-1_127_200" fill="white">
<path d="M19.5 10.5625C20.5774 10.5625 21.6108 10.9905 22.3726 11.7524C23.1345 12.5142 23.5625 13.5476 23.5625 14.625C23.5625 15.1585 23.4574 15.6868 23.2533 16.1797C23.0491 16.6725 22.7499 17.1204 22.3726 17.4976C21.9954 17.8749 21.5475 18.1741 21.0547 18.3783C20.5618 18.5824 20.0335 18.6875 19.5 18.6875C18.4226 18.6875 17.3892 18.2595 16.6274 17.4976C15.8655 16.7358 15.4375 15.7024 15.4375 14.625C15.4375 13.5476 15.8655 12.5142 16.6274 11.7524C17.3892 10.9905 18.4226 10.5625 19.5 10.5625ZM19.5 3.25C22.5168 3.25 25.4101 4.44843 27.5433 6.58166C29.6766 8.71489 30.875 11.6082 30.875 14.625C30.875 23.1562 19.5 35.75 19.5 35.75C19.5 35.75 8.125 23.1562 8.125 14.625C8.125 11.6082 9.32343 8.71489 11.4567 6.58166C13.5899 4.44843 16.4832 3.25 19.5 3.25ZM19.5 6.5C17.3451 6.5 15.2785 7.35602 13.7548 8.87976C12.231 10.4035 11.375 12.4701 11.375 14.625C11.375 16.25 11.375 19.5 19.5 30.4037C27.625 19.5 27.625 16.25 27.625 14.625C27.625 12.4701 26.769 10.4035 25.2452 8.87976C23.7215 7.35602 21.6549 6.5 19.5 6.5Z"/>
</mask>
<path d="M19.5 10.5625V8.5625V10.5625ZM19.5 35.75L18.0158 37.0906L19.5 38.7338L20.9842 37.0906L19.5 35.75ZM19.5 30.4037L17.8963 31.5988L19.5 33.751L21.1037 31.5988L19.5 30.4037ZM27.625 14.625H25.625H27.625ZM19.5 12.5625C20.047 12.5625 20.5716 12.7798 20.9584 13.1666L23.7868 10.3382C22.6499 9.20123 21.1079 8.5625 19.5 8.5625V12.5625ZM20.9584 13.1666C21.3452 13.5534 21.5625 14.078 21.5625 14.625H25.5625C25.5625 13.0171 24.9238 11.4751 23.7868 10.3382L20.9584 13.1666ZM21.5625 14.625C21.5625 14.8959 21.5092 15.1641 21.4055 15.4143L25.101 16.945C25.4057 16.2095 25.5625 15.4211 25.5625 14.625H21.5625ZM21.4055 15.4143C21.3019 15.6645 21.1499 15.8919 20.9584 16.0834L23.7868 18.9118C24.3498 18.3489 24.7964 17.6806 25.101 16.945L21.4055 15.4143ZM20.9584 16.0834C20.7669 16.2749 20.5395 16.4269 20.2893 16.5305L21.82 20.226C22.5556 19.9214 23.2239 19.4748 23.7868 18.9118L20.9584 16.0834ZM20.2893 16.5305C20.0391 16.6342 19.7709 16.6875 19.5 16.6875V20.6875C20.2961 20.6875 21.0845 20.5307 21.82 20.226L20.2893 16.5305ZM19.5 16.6875C18.953 16.6875 18.4284 16.4702 18.0416 16.0834L15.2132 18.9118C16.3501 20.0488 17.8921 20.6875 19.5 20.6875V16.6875ZM18.0416 16.0834C17.6548 15.6966 17.4375 15.172 17.4375 14.625H13.4375C13.4375 16.2329 14.0762 17.7749 15.2132 18.9118L18.0416 16.0834ZM17.4375 14.625C17.4375 14.078 17.6548 13.5534 18.0416 13.1666L15.2132 10.3382C14.0762 11.4751 13.4375 13.0171 13.4375 14.625H17.4375ZM18.0416 13.1666C18.4284 12.7798 18.953 12.5625 19.5 12.5625V8.5625C17.8921 8.5625 16.3501 9.20123 15.2132 10.3382L18.0416 13.1666ZM19.5 5.25C21.9864 5.25 24.371 6.23772 26.1291 7.99587L28.9576 5.16745C26.4493 2.65915 23.0473 1.25 19.5 1.25V5.25ZM26.1291 7.99587C27.8873 9.75403 28.875 12.1386 28.875 14.625H32.875C32.875 11.0777 31.4659 7.67575 28.9576 5.16745L26.1291 7.99587ZM28.875 14.625C28.875 16.3531 28.2875 18.4414 27.2724 20.7072C26.2691 22.9468 24.9137 25.2167 23.5296 27.2681C22.1493 29.3139 20.7651 31.1064 19.7244 32.3886C19.205 33.0286 18.7734 33.5388 18.4736 33.8868C18.3237 34.0607 18.2069 34.194 18.1288 34.2825C18.0897 34.3267 18.0603 34.3597 18.0412 34.3811C18.0317 34.3917 18.0247 34.3995 18.0205 34.4042C18.0183 34.4066 18.0169 34.4082 18.0161 34.4091C18.0157 34.4095 18.0155 34.4098 18.0154 34.4098C18.0154 34.4099 18.0155 34.4098 18.0155 34.4098C18.0156 34.4096 18.0158 34.4094 19.5 35.75C20.9842 37.0906 20.9845 37.0903 20.9848 37.0899C20.9849 37.0898 20.9853 37.0894 20.9856 37.089C20.9863 37.0883 20.9871 37.0874 20.9881 37.0863C20.99 37.0841 20.9927 37.0812 20.996 37.0774C21.0027 37.07 21.0121 37.0596 21.0241 37.0461C21.048 37.0193 21.0825 36.9806 21.1267 36.9305C21.2152 36.8304 21.3428 36.6847 21.504 36.4976C21.8262 36.1236 22.2833 35.5832 22.8303 34.9093C23.9224 33.5635 25.382 31.6744 26.8454 29.5053C28.3051 27.3419 29.7934 24.8638 30.9229 22.3426C32.0406 19.8476 32.875 17.1625 32.875 14.625H28.875ZM19.5 35.75C20.9842 34.4094 20.9844 34.4096 20.9845 34.4098C20.9845 34.4098 20.9846 34.4099 20.9846 34.4098C20.9845 34.4098 20.9843 34.4095 20.9839 34.4091C20.9831 34.4082 20.9817 34.4066 20.9795 34.4042C20.9753 34.3995 20.9683 34.3917 20.9588 34.3811C20.9397 34.3597 20.9103 34.3267 20.8712 34.2825C20.7931 34.194 20.6763 34.0607 20.5264 33.8868C20.2266 33.5388 19.795 33.0286 19.2756 32.3886C18.2349 31.1064 16.8507 29.3139 15.4704 27.2681C14.0863 25.2167 12.7309 22.9468 11.7276 20.7072C10.7125 18.4414 10.125 16.3531 10.125 14.625H6.125C6.125 17.1625 6.95939 19.8476 8.07714 22.3426C9.20662 24.8638 10.6949 27.3419 12.1546 29.5053C13.618 31.6744 15.0776 33.5635 16.1697 34.9093C16.7167 35.5832 17.1738 36.1236 17.496 36.4976C17.6572 36.6847 17.7848 36.8304 17.8733 36.9305C17.9175 36.9806 17.952 37.0193 17.9759 37.0461C17.9879 37.0596 17.9973 37.07 18.004 37.0774C18.0073 37.0812 18.01 37.0841 18.0119 37.0863C18.0129 37.0874 18.0137 37.0883 18.0144 37.089C18.0147 37.0894 18.0151 37.0898 18.0152 37.0899C18.0155 37.0903 18.0158 37.0906 19.5 35.75ZM10.125 14.625C10.125 12.1386 11.1127 9.75403 12.8709 7.99587L10.0424 5.16745C7.53415 7.67575 6.125 11.0777 6.125 14.625H10.125ZM12.8709 7.99587C14.629 6.23772 17.0136 5.25 19.5 5.25V1.25C15.9527 1.25 12.5507 2.65915 10.0424 5.16745L12.8709 7.99587ZM19.5 4.5C16.8147 4.5 14.2393 5.56674 12.3405 7.46554L15.169 10.294C16.3176 9.14531 17.8755 8.5 19.5 8.5V4.5ZM12.3405 7.46554C10.4417 9.36435 9.375 11.9397 9.375 14.625H13.375C13.375 13.0005 14.0203 11.4426 15.169 10.294L12.3405 7.46554ZM9.375 14.625C9.375 15.6406 9.40621 17.1385 10.5513 19.8202C11.6551 22.4053 13.7897 26.0877 17.8963 31.5988L21.1037 29.2087C17.0853 23.816 15.1574 20.4215 14.23 18.2495C13.3438 16.174 13.375 15.2344 13.375 14.625H9.375ZM21.1037 31.5988C25.2103 26.0877 27.3449 22.4053 28.4487 19.8202C29.5938 17.1385 29.625 15.6406 29.625 14.625H25.625C25.625 15.2344 25.6562 16.174 24.77 18.2495C23.8426 20.4215 21.9147 23.816 17.8963 29.2087L21.1037 31.5988ZM29.625 14.625C29.625 11.9397 28.5583 9.36435 26.6595 7.46554L23.831 10.294C24.9797 11.4426 25.625 13.0005 25.625 14.625H29.625ZM26.6595 7.46554C24.7607 5.56674 22.1853 4.5 19.5 4.5V8.5C21.1245 8.5 22.6824 9.14531 23.831 10.294L26.6595 7.46554Z" fill="black" mask="url(#path-1-inside-1_127_200)"/>
</svg>
