<svg width="30" height="24" viewBox="0 0 30 24" fill="none" xmlns="http://www.w3.org/2000/svg">
<path d="M15.4 12.2933C16.1115 11.6775 16.6821 10.9159 17.0732 10.06C17.4643 9.20422 17.6667 8.27428 17.6667 7.33334C17.6667 5.56523 16.9643 3.86954 15.7141 2.61929C14.4638 1.36905 12.7682 0.666672 11 0.666672C9.23193 0.666672 7.53624 1.36905 6.286 2.61929C5.03575 3.86954 4.33337 5.56523 4.33337 7.33334C4.33336 8.27428 4.53578 9.20422 4.92687 10.06C5.31797 10.9159 5.8886 11.6775 6.60004 12.2933C4.73356 13.1385 3.14999 14.5034 2.03868 16.2247C0.927368 17.9461 0.335336 19.9511 0.333374 22C0.333374 22.3536 0.47385 22.6928 0.723898 22.9428C0.973947 23.1929 1.31309 23.3333 1.66671 23.3333C2.02033 23.3333 2.35947 23.1929 2.60952 22.9428C2.85957 22.6928 3.00004 22.3536 3.00004 22C3.00004 19.8783 3.8429 17.8434 5.34319 16.3432C6.84348 14.8429 8.87831 14 11 14C13.1218 14 15.1566 14.8429 16.6569 16.3432C18.1572 17.8434 19 19.8783 19 22C19 22.3536 19.1405 22.6928 19.3906 22.9428C19.6406 23.1929 19.9798 23.3333 20.3334 23.3333C20.687 23.3333 21.0261 23.1929 21.2762 22.9428C21.5262 22.6928 21.6667 22.3536 21.6667 22C21.6647 19.9511 21.0727 17.9461 19.9614 16.2247C18.8501 14.5034 17.2665 13.1385 15.4 12.2933V12.2933ZM11 11.3333C10.2089 11.3333 9.43556 11.0987 8.77776 10.6592C8.11996 10.2197 7.60727 9.59498 7.30452 8.86407C7.00177 8.13317 6.92256 7.3289 7.0769 6.55298C7.23124 5.77705 7.6122 5.06432 8.17161 4.50491C8.73102 3.9455 9.44376 3.56454 10.2197 3.4102C10.9956 3.25586 11.7999 3.33507 12.5308 3.63782C13.2617 3.94057 13.8864 4.45326 14.3259 5.11106C14.7654 5.76885 15 6.54221 15 7.33334C15 8.3942 14.5786 9.41162 13.8285 10.1618C13.0783 10.9119 12.0609 11.3333 11 11.3333ZM23.9867 11.76C24.84 10.7991 25.3974 9.61208 25.5918 8.34179C25.7862 7.0715 25.6093 5.7721 25.0824 4.6C24.5555 3.42791 23.7011 2.43307 22.622 1.73524C21.5429 1.03741 20.2851 0.666328 19 0.666672C18.6464 0.666672 18.3073 0.807148 18.0572 1.0572C17.8072 1.30724 17.6667 1.64638 17.6667 2.00001C17.6667 2.35363 17.8072 2.69277 18.0572 2.94281C18.3073 3.19286 18.6464 3.33334 19 3.33334C20.0609 3.33334 21.0783 3.75477 21.8285 4.50491C22.5786 5.25506 23 6.27247 23 7.33334C22.9982 8.03366 22.8124 8.72121 22.4615 9.32723C22.1105 9.93326 21.6065 10.4365 21 10.7867C20.8024 10.9007 20.6373 11.0636 20.5205 11.2597C20.4038 11.4558 20.3394 11.6785 20.3334 11.9067C20.3278 12.133 20.38 12.3571 20.4849 12.5577C20.5899 12.7583 20.7442 12.9289 20.9334 13.0533L21.4534 13.4L21.6267 13.4933C23.2339 14.2556 24.5898 15.4613 25.5347 16.9684C26.4796 18.4755 26.9741 20.2213 26.96 22C26.96 22.3536 27.1005 22.6928 27.3506 22.9428C27.6006 23.1929 27.9398 23.3333 28.2934 23.3333C28.647 23.3333 28.9861 23.1929 29.2362 22.9428C29.4862 22.6928 29.6267 22.3536 29.6267 22C29.6376 19.9539 29.1251 17.939 28.138 16.1468C27.1509 14.3545 25.7218 12.8444 23.9867 11.76V11.76Z" fill="black"/>
</svg>
