<svg width="48" height="63" viewBox="0 0 48 63" fill="none" xmlns="http://www.w3.org/2000/svg">
<path d="M36.0386 26.8157C36.0134 26.6948 36.0334 26.583 36.0986 26.4804C36.1666 26.3796 36.2611 26.3166 36.382 26.2914C36.5053 26.2657 36.6171 26.2857 36.7174 26.3514C36.8205 26.419 36.8847 26.5132 36.9099 26.6341C36.9356 26.7574 36.9146 26.8706 36.8471 26.9737C36.7819 27.0764 36.6877 27.1406 36.5644 27.1663C36.4435 27.1915 36.3314 27.1703 36.2283 27.1027C36.1275 27.0347 36.0643 26.939 36.0386 26.8157Z" fill="#CF3C34"/>
<path d="M36.7096 30.0783C36.913 30.0819 37.0902 30.1261 37.2413 30.2111C37.3948 30.2962 37.5127 30.4109 37.595 30.5552C37.6772 30.702 37.7167 30.865 37.7136 31.0441C37.7109 31.1991 37.672 31.3425 37.597 31.4745C37.5245 31.6064 37.4295 31.7065 37.312 31.7746L38.3653 31.7931L38.3595 32.1272L35.6717 32.0802L35.6776 31.746L36.0517 31.7526C35.9342 31.6851 35.8378 31.5865 35.7626 31.4568C35.6898 31.3272 35.6549 31.1764 35.6579 31.0045C35.661 30.8277 35.7074 30.6675 35.7971 30.5237C35.8868 30.3824 36.011 30.2719 36.1698 30.1924C36.3287 30.1128 36.5086 30.0748 36.7096 30.0783ZM36.6764 31.7635C36.8265 31.7661 36.9578 31.7382 37.0703 31.6796C37.1827 31.621 37.2689 31.5402 37.3288 31.4371C37.3911 31.3364 37.4234 31.2244 37.4256 31.1009C37.4277 30.9774 37.4006 30.8643 37.3443 30.7615C37.288 30.6588 37.2046 30.5762 37.0943 30.5137C36.984 30.4513 36.8538 30.4187 36.7036 30.4161C36.5511 30.4134 36.4174 30.4413 36.3025 30.4999C36.1901 30.5585 36.1027 30.6381 36.0404 30.7387C35.9805 30.8394 35.9495 30.9515 35.9473 31.075C35.9451 31.1985 35.9722 31.3116 36.0285 31.4143C36.0873 31.5195 36.1718 31.6033 36.2821 31.6658C36.3948 31.7283 36.5263 31.7609 36.6764 31.7635Z" fill="#CF3C34"/>
<path d="M36.2973 35.1911C36.2353 35.1802 36.1703 35.165 36.1024 35.1457L36.3782 33.5787C36.1829 33.5566 36.0199 33.5955 35.8892 33.6955C35.7605 33.7982 35.681 33.9355 35.6508 34.1072C35.626 34.2479 35.6376 34.3705 35.6857 34.4748C35.7357 34.582 35.8122 34.6643 35.9152 34.7218L35.8534 35.0724C35.6743 34.9867 35.5389 34.8547 35.4473 34.6763C35.3582 34.4983 35.3342 34.2925 35.3753 34.0587C35.4081 33.8727 35.4792 33.7131 35.5887 33.5799C35.6978 33.4491 35.836 33.3554 36.0033 33.2988C36.173 33.2426 36.3593 33.2323 36.562 33.268C36.7647 33.3037 36.9353 33.3755 37.0737 33.4835C37.212 33.5914 37.309 33.7253 37.3645 33.8851C37.4219 34.0476 37.4338 34.2243 37.4003 34.4151C37.3675 34.6012 37.298 34.7586 37.1917 34.8874C37.0854 35.0163 36.954 35.1063 36.7975 35.1574C36.6429 35.2113 36.4762 35.2226 36.2973 35.1911ZM36.4245 34.8667C36.5485 34.8886 36.6595 34.8798 36.7574 34.8405C36.8576 34.8016 36.9388 34.7384 37.001 34.651C37.065 34.5664 37.1071 34.4668 37.1273 34.3523C37.1563 34.1878 37.1286 34.0378 37.0442 33.9025C36.9594 33.7695 36.8254 33.6783 36.6423 33.6289L36.4245 34.8667Z" fill="#CF3C34"/>
<path d="M36.5975 37.54C36.5195 37.7693 36.3864 37.9312 36.1981 38.0258C36.0122 38.1211 35.7886 38.1243 35.5272 38.0354L34.4164 37.6575L34.5217 37.348L35.5878 37.7107C35.7758 37.7746 35.9351 37.7764 36.0656 37.7159C36.1985 37.6562 36.2926 37.545 36.348 37.3822C36.4042 37.2172 36.3974 37.0678 36.3278 36.9341C36.2574 36.8027 36.1236 36.7035 35.9264 36.6364L34.8844 36.2819L34.9909 35.9689L36.8755 36.6101L36.769 36.923L36.5007 36.8318C36.576 36.9264 36.622 37.0355 36.6389 37.1589C36.6549 37.2846 36.6411 37.4116 36.5975 37.54Z" fill="#CF3C34"/>
<path d="M35.3136 39.8243L34.2609 39.306C34.174 39.2632 34.103 39.2512 34.0479 39.2699C33.9949 39.2897 33.946 39.3453 33.9011 39.4365L33.7936 39.6549L33.5426 39.5313L33.6742 39.2641C33.7555 39.099 33.8545 38.9938 33.9712 38.9487C34.0879 38.9036 34.2331 38.9238 34.407 39.0094L35.4596 39.5277L35.5735 39.2963L35.818 39.4167L35.704 39.648L36.1538 39.8695L36.0078 40.1661L35.558 39.9446L35.3286 40.4107L35.0841 40.2903L35.3136 39.8243Z" fill="#CF3C34"/>
<path d="M33.9779 40.8536C34.147 40.9668 34.2719 41.1 34.3529 41.2533C34.4358 41.408 34.4728 41.5683 34.4637 41.7342C34.4533 41.9021 34.3989 42.0594 34.3005 42.2063C34.2035 42.3512 34.088 42.4561 33.9542 42.521C33.8204 42.5858 33.6887 42.6127 33.5591 42.6017L33.8609 42.8039L33.675 43.0815L32.021 41.9738L32.2069 41.6961L32.5148 41.9023C32.4546 41.7833 32.4287 41.6479 32.4371 41.4961C32.4461 41.3477 32.4985 41.2021 32.5942 41.0592C32.6926 40.9123 32.8177 40.8038 32.9697 40.7335C33.1216 40.6633 33.2859 40.6378 33.4625 40.657C33.6391 40.6762 33.8109 40.7417 33.9779 40.8536ZM33.037 42.252C33.1617 42.3356 33.2872 42.3832 33.4135 42.3949C33.5397 42.4066 33.656 42.3853 33.7622 42.3311C33.8691 42.2803 33.9569 42.2036 34.0257 42.101C34.0944 41.9984 34.1329 41.8886 34.1412 41.7718C34.1495 41.6549 34.1242 41.5403 34.0654 41.428C34.0065 41.3157 33.9147 41.2178 33.7899 41.1343C33.6632 41.0494 33.5357 41.0004 33.4074 40.9874C33.2811 40.9757 33.1646 40.9952 33.0577 41.0461C32.9528 41.0982 32.866 41.1756 32.7972 41.2782C32.7285 41.3809 32.69 41.4906 32.6817 41.6075C32.674 41.7277 32.6996 41.8439 32.7585 41.9562C32.8194 42.0699 32.9122 42.1685 33.037 42.252Z" fill="#CF3C34"/>
<path d="M33.112 44.8634L31.0746 43.1098L31.2902 42.8592L33.3276 44.6128L33.112 44.8634Z" fill="#CF3C34"/>
<path d="M29.8803 45.7315C30.0067 45.894 30.0843 46.0607 30.113 46.2317C30.1431 46.4046 30.1269 46.5691 30.0643 46.7252C29.9998 46.8828 29.8929 47.0196 29.7439 47.1356C29.5508 47.2858 29.3557 47.3624 29.1586 47.3655C28.9596 47.3699 28.7753 47.3047 28.6058 47.1696L28.8868 46.951C28.9879 47.0257 29.0992 47.0603 29.2207 47.0548C29.3403 47.0507 29.4574 47.0041 29.5721 46.9149C29.7212 46.7989 29.8014 46.6536 29.8129 46.479C29.8258 46.3063 29.7594 46.1263 29.6137 45.939C29.4664 45.7498 29.3068 45.6392 29.1347 45.6074C28.9627 45.5756 28.8021 45.6177 28.653 45.7337C28.5383 45.8229 28.4636 45.924 28.4288 46.037C28.394 46.15 28.4009 46.2674 28.4496 46.3891L28.1686 46.6077C28.0857 46.4144 28.0694 46.2199 28.1197 46.0243C28.1715 45.8306 28.292 45.6601 28.4813 45.5129C28.6303 45.3969 28.7892 45.327 28.9579 45.3032C29.1246 45.2808 29.288 45.3056 29.4482 45.3773C29.6084 45.4491 29.7524 45.5672 29.8803 45.7315Z" fill="#CF3C34"/>
<path d="M27.4978 47.5007C27.5961 47.6788 27.6461 47.8545 27.6478 48.0279C27.6506 48.2034 27.61 48.3628 27.5259 48.506C27.4396 48.6505 27.3191 48.7654 27.1644 48.8509C27.0117 48.9352 26.8611 48.9755 26.7124 48.9718C26.5638 48.9681 26.4344 48.9317 26.3242 48.8625L26.4998 49.1805L26.2073 49.342L25.245 47.5993L25.5376 47.4378L25.7167 47.7622C25.7177 47.6288 25.7568 47.4966 25.8338 47.3655C25.9099 47.2378 26.0232 47.1323 26.1737 47.0492C26.3285 46.9637 26.4895 46.9246 26.6567 46.9319C26.8239 46.9392 26.9816 46.9918 27.1298 47.0898C27.2779 47.1878 27.4006 47.3248 27.4978 47.5007ZM26.0205 48.3123C26.093 48.4437 26.1828 48.5436 26.2896 48.6119C26.3965 48.6801 26.5095 48.7145 26.6288 48.7151C26.7471 48.7189 26.8603 48.691 26.9684 48.6313C27.0765 48.5716 27.1611 48.4917 27.222 48.3916C27.283 48.2916 27.313 48.1782 27.3122 48.0514C27.3113 47.9246 27.2746 47.7955 27.202 47.664C27.1283 47.5305 27.0374 47.4285 26.9294 47.3581C26.8225 47.2899 26.7099 47.2538 26.5916 47.25C26.4745 47.2483 26.3619 47.2773 26.2538 47.337C26.1456 47.3967 26.0611 47.4765 26.0001 47.5766C25.9383 47.6799 25.9077 47.795 25.9086 47.9218C25.9106 48.0507 25.9479 48.1809 26.0205 48.3123Z" fill="#CF3C34"/>
<path d="M24.491 49.7273C24.4782 49.8545 24.4336 49.9668 24.3573 50.0641C24.2786 50.1624 24.1671 50.2397 24.0227 50.296L23.8986 49.9779L23.9798 49.9462C24.325 49.8116 24.4246 49.557 24.2785 49.1824L23.8851 48.1739L24.1931 48.0538L24.9165 49.9084L24.6085 50.0285L24.491 49.7273Z" fill="#CF3C34"/>
<path d="M20.9 50.189C20.8848 50.1279 20.8721 50.0624 20.8621 49.9925L22.4055 49.6061C22.3462 49.4188 22.2442 49.2858 22.0997 49.2071C21.9534 49.1314 21.7957 49.1147 21.6265 49.157C21.4879 49.1917 21.3808 49.2523 21.305 49.3387C21.2275 49.428 21.1835 49.5313 21.173 49.6488L20.8276 49.7353C20.8329 49.5368 20.8983 49.3594 21.0239 49.2031C21.1502 49.0491 21.3284 48.9433 21.5586 48.8857C21.7419 48.8398 21.9166 48.8398 22.0828 48.8855C22.2467 48.9319 22.3886 49.0199 22.5085 49.1497C22.6289 49.2818 22.7142 49.4477 22.7641 49.6474C22.8141 49.8471 22.818 50.0321 22.7758 50.2025C22.7336 50.3728 22.6508 50.5159 22.5275 50.6316C22.4024 50.7503 22.2459 50.8332 22.058 50.8802C21.8747 50.9261 21.7026 50.9267 21.5417 50.8822C21.3807 50.8376 21.245 50.7542 21.1346 50.6321C21.0223 50.5129 20.9442 50.3652 20.9 50.189ZM21.248 50.173C21.2786 50.2952 21.3318 50.393 21.4076 50.4664C21.484 50.5421 21.5748 50.5905 21.6799 50.6116C21.7833 50.6357 21.8914 50.6336 22.0041 50.6054C22.1662 50.5648 22.2919 50.4784 22.3811 50.3462C22.468 50.2146 22.4967 50.0551 22.4673 49.8678L21.248 50.173Z" fill="#CF3C34"/>
<path d="M17.6426 50.2318C17.7661 50.2283 17.8726 50.2676 17.9622 50.3499C18.0493 50.4346 18.0947 50.5387 18.0982 50.6622C18.1018 50.7881 18.0624 50.8946 17.9801 50.9817C17.8954 51.0713 17.7913 51.1179 17.6679 51.1214C17.542 51.125 17.4342 51.0844 17.3446 50.9997C17.2551 50.9175 17.2085 50.8134 17.2049 50.6875C17.2014 50.5641 17.242 50.4575 17.3267 50.3679C17.4114 50.2807 17.5168 50.2353 17.6426 50.2318Z" fill="#CF3C34"/>
<path d="M14.3132 50.3171C14.2738 50.5167 14.199 50.6834 14.0887 50.8171C13.978 50.9533 13.8443 51.0491 13.6877 51.1046C13.5287 51.1596 13.3613 51.1698 13.1855 51.1352C13.0335 51.1052 12.8991 51.0417 12.7825 50.9446C12.6654 50.85 12.5836 50.7388 12.5372 50.6112L12.3334 51.6447L12.0055 51.5801L12.5256 48.9427L12.8535 49.0074L12.7811 49.3744C12.8682 49.2707 12.9822 49.1932 13.1231 49.142C13.2636 49.0932 13.4181 49.0854 13.5868 49.1186C13.7603 49.1528 13.9099 49.2268 14.0356 49.3404C14.1589 49.4536 14.2457 49.5954 14.296 49.7657C14.3464 49.9361 14.3521 50.1199 14.3132 50.3171ZM12.6602 49.9875C12.6312 50.1348 12.6356 50.2689 12.6734 50.3899C12.7113 50.511 12.7756 50.61 12.8666 50.6872C12.9546 50.7663 13.0593 50.8178 13.1804 50.8417C13.3016 50.8656 13.4177 50.8588 13.5288 50.8215C13.6398 50.7841 13.7358 50.7167 13.8167 50.6191C13.8977 50.5215 13.9527 50.3991 13.9817 50.2517C14.0113 50.1021 14.0073 49.9655 13.9699 49.8421C13.9321 49.7211 13.8691 49.6211 13.7811 49.542C13.6925 49.4653 13.5876 49.415 13.4665 49.3911C13.3453 49.3672 13.2292 49.3739 13.1181 49.4113C13.0043 49.4505 12.9068 49.519 12.8259 49.6166C12.7445 49.7165 12.6892 49.8401 12.6602 49.9875Z" fill="#CF3C34"/>
<path d="M9.353 49.0103C9.37468 48.9512 9.40101 48.8899 9.43201 48.8265L10.9259 49.3741C10.982 49.1858 10.9724 49.0185 10.8971 48.8722C10.8186 48.7274 10.6976 48.6249 10.5338 48.5649C10.3997 48.5157 10.277 48.5056 10.1658 48.5345C10.0515 48.5648 9.95704 48.6256 9.88231 48.7168L9.54807 48.5943C9.66394 48.433 9.81776 48.323 10.0095 48.2644C10.2004 48.208 10.4073 48.2206 10.6301 48.3023C10.8075 48.3673 10.9521 48.4655 11.0639 48.5967C11.1734 48.7272 11.2413 48.8797 11.2675 49.0544C11.2929 49.2314 11.2702 49.4165 11.1993 49.6098C11.1284 49.8031 11.0277 49.9583 10.897 50.0755C10.7664 50.1926 10.6175 50.2645 10.4505 50.2909C10.2803 50.3188 10.1043 50.2994 9.92241 50.2327C9.74505 50.1677 9.60233 50.0716 9.49425 49.9442C9.38616 49.8169 9.32075 49.6717 9.298 49.5086C9.27215 49.3469 9.29048 49.1808 9.353 49.0103ZM9.64985 49.1926C9.6065 49.3109 9.59556 49.4216 9.61701 49.5249C9.63763 49.6305 9.6855 49.7216 9.76061 49.7981C9.83262 49.8761 9.92319 49.9351 10.0323 49.9751C10.1892 50.0326 10.3417 50.0318 10.4898 49.9726C10.6356 49.9126 10.749 49.7968 10.8299 49.6253L9.64985 49.1926Z" fill="#CF3C34"/>
<path d="M6.98783 48.8918C6.7759 48.7747 6.63997 48.6151 6.58006 48.4132C6.51897 48.2133 6.55522 47.9926 6.68881 47.751L7.25658 46.7242L7.54269 46.8824L6.99778 47.8679C6.90168 48.0417 6.87189 48.1982 6.90839 48.3373C6.94372 48.4786 7.03663 48.5909 7.1871 48.6741C7.33969 48.7585 7.48792 48.7782 7.63179 48.7332C7.77354 48.687 7.8948 48.5728 7.99558 48.3906L8.52819 47.4273L8.81748 47.5873L7.85421 49.3294L7.56492 49.1694L7.70203 48.9215C7.59559 48.9788 7.48014 49.0049 7.3557 48.9998C7.22914 48.9934 7.10652 48.9575 6.98783 48.8918Z" fill="#CF3C34"/>
<path d="M4.96557 47.2254L5.66127 46.2806C5.71871 46.2026 5.74305 46.1348 5.73431 46.0772C5.72413 46.0216 5.67809 45.9637 5.59619 45.9034L5.4002 45.759L5.56605 45.5338L5.80591 45.7104C5.95412 45.8196 6.04015 45.9355 6.064 46.0583C6.08785 46.1812 6.04234 46.3206 5.92746 46.4766L5.23176 47.4214L5.43945 47.5744L5.27791 47.7938L5.07022 47.6408L4.77299 48.0445L4.50679 47.8485L4.80403 47.4448L4.38572 47.1368L4.54726 46.9174L4.96557 47.2254Z" fill="#CF3C34"/>
<path d="M4.1878 45.7292C4.04658 45.8756 3.89338 45.9751 3.7282 46.0278C3.56134 46.0822 3.39706 46.0903 3.23538 46.0521C3.07195 46.0123 2.9266 45.931 2.79935 45.8083C2.67384 45.6872 2.59095 45.5551 2.55068 45.412C2.51041 45.2689 2.50712 45.1345 2.54081 45.0088L2.28864 45.2703L2.04808 45.0383L3.42999 43.6054L3.67054 43.8374L3.41333 44.1041C3.54109 44.0658 3.67893 44.0642 3.82686 44.0992C3.97137 44.1343 4.1055 44.2115 4.22927 44.3308C4.35652 44.4536 4.44131 44.5959 4.48363 44.7578C4.52596 44.9198 4.52212 45.086 4.47211 45.2565C4.4221 45.4269 4.32733 45.5845 4.1878 45.7292ZM2.97707 44.5565C2.87284 44.6646 2.80385 44.7797 2.77009 44.9019C2.73634 45.0241 2.73677 45.1423 2.77137 45.2564C2.80256 45.3706 2.8626 45.4706 2.9515 45.5563C3.04041 45.6421 3.14164 45.6993 3.2552 45.7281C3.36876 45.7569 3.486 45.7522 3.60691 45.714C3.72782 45.6758 3.84039 45.6027 3.94462 45.4947C4.05054 45.3848 4.12121 45.2679 4.15664 45.144C4.1904 45.0218 4.19168 44.9036 4.1605 44.7894C4.12763 44.6769 4.06675 44.5778 3.97785 44.4921C3.88895 44.4064 3.78771 44.3491 3.67415 44.3203C3.55717 44.2916 3.43822 44.2964 3.31731 44.3345C3.19471 44.3744 3.0813 44.4484 2.97707 44.5565Z" fill="#CF3C34"/>
<path d="M0.393454 44.1703L2.47868 42.4738L2.6873 42.7302L0.602074 44.4267L0.393454 44.1703Z" fill="#CF3C34"/>
<path d="M0.108343 40.836C-0.0738578 40.9318 -0.251639 40.9788 -0.425 40.9769C-0.600505 40.9761 -0.75958 40.9312 -0.902225 40.842C-1.046 40.7507 -1.16184 40.6214 -1.24974 40.4542C-1.36357 40.2377 -1.4046 40.0322 -1.37282 39.8377C-1.34217 39.641 -1.24543 39.4711 -1.08261 39.328L-0.916942 39.6431C-1.00834 39.7295 -1.06202 39.8329 -1.07797 39.9535C-1.09505 40.0719 -1.06979 40.1955 -1.00216 40.3241C-0.914257 40.4913 -0.78538 40.5959 -0.615532 40.6379C-0.447828 40.6811 -0.258942 40.6474 -0.0488757 40.537C0.163334 40.4254 0.300267 40.2877 0.361921 40.124C0.423575 39.9602 0.410449 39.7948 0.322542 39.6276C0.254921 39.499 0.168561 39.4076 0.063461 39.3534C-0.0416387 39.2992 -0.158373 39.2853 -0.286742 39.3118L-0.452414 38.9967C-0.247562 38.9492 -0.0532845 38.9674 0.130419 39.0514C0.311979 39.1365 0.458546 39.2852 0.57012 39.4974C0.658028 39.6646 0.698843 39.8333 0.692567 40.0035C0.685164 40.1716 0.632029 40.3281 0.533161 40.4731C0.434293 40.6181 0.292687 40.7391 0.108343 40.836Z" fill="#CF3C34"/>
<path d="M-1.66205 24.7044C-1.85158 24.6305 -2.00245 24.5275 -2.11468 24.3953C-2.22916 24.2623 -2.29993 24.1138 -2.32699 23.9499C-2.35316 23.7837 -2.33369 23.6172 -2.26858 23.4502C-2.21226 23.3058 -2.12607 23.1847 -2.00998 23.087C-1.89616 22.9885 -1.77233 22.9276 -1.63852 22.9044L-2.61999 22.5216L-2.49856 22.2103L0.00588088 23.187L-0.115547 23.4983L-0.464138 23.3624C-0.377339 23.4664 -0.321157 23.5923 -0.295592 23.74C-0.272284 23.8869 -0.291866 24.0404 -0.35434 24.2006C-0.418573 24.3653 -0.5177 24.4995 -0.651719 24.6032C-0.784859 24.7047 -0.939716 24.7651 -1.11629 24.7847C-1.29286 24.8042 -1.47478 24.7774 -1.66205 24.7044ZM-1.04625 23.1354C-1.18614 23.0808 -1.31898 23.0615 -1.44476 23.0774C-1.57055 23.0934 -1.67943 23.1393 -1.77142 23.2152C-1.86478 23.2879 -1.9339 23.3819 -1.97877 23.4969C-2.02365 23.612 -2.03749 23.7275 -2.0203 23.8433C-2.0031 23.9592 -1.95361 24.0656 -1.87182 24.1625C-1.79003 24.2594 -1.67919 24.3351 -1.53931 24.3896C-1.39716 24.4451 -1.26207 24.4653 -1.13403 24.4502C-1.00824 24.4343 -0.898667 24.3899 -0.805305 24.3172C-0.714199 24.2435 -0.646208 24.1492 -0.601332 24.0341C-0.556457 23.919 -0.542616 23.8036 -0.55981 23.6877C-0.57838 23.5687 -0.62856 23.4607 -0.71035 23.3638C-0.794396 23.2661 -0.906363 23.1899 -1.04625 23.1354Z" fill="#CF3C34"/>
<path d="M0.498599 20.0521C0.552972 20.0839 0.60865 20.1206 0.665634 20.1623L-0.136739 21.5363C0.0387606 21.6247 0.205141 21.6448 0.362403 21.5964C0.518795 21.5447 0.640957 21.4435 0.728888 21.293C0.800943 21.1696 0.832553 21.0506 0.823718 20.9361C0.814013 20.8182 0.770831 20.7145 0.694173 20.6249L0.873699 20.3175C1.01204 20.4599 1.09319 20.6307 1.11715 20.8298C1.13902 21.0277 1.09011 21.2291 0.97043 21.434C0.875171 21.5971 0.753085 21.7222 0.604172 21.8091C0.45648 21.8939 0.294341 21.9338 0.117756 21.9289C-0.0609215 21.9227 -0.239139 21.8677 -0.416897 21.7639C-0.594656 21.6601 -0.729694 21.5335 -0.822012 21.3843C-0.914331 21.235 -0.958793 21.0758 -0.955399 20.9067C-0.952875 20.7343 -0.902762 20.5645 -0.805061 20.3972C-0.709802 20.2341 -0.589983 20.1105 -0.445604 20.0266C-0.301224 19.9426 -0.146756 19.9038 0.0178007 19.9102C0.181488 19.9132 0.341754 19.9605 0.498599 20.0521ZM0.266799 20.3122C0.158053 20.2487 0.0509469 20.2184 -0.0545194 20.2213C-0.162077 20.223 -0.260148 20.2541 -0.348733 20.3145C-0.438188 20.3716 -0.512226 20.4504 -0.570846 20.5508C-0.655114 20.6951 -0.681161 20.8453 -0.648987 21.0015C-0.615591 21.1557 -0.521609 21.2877 -0.367038 21.3976L0.266799 20.3122Z" fill="#CF3C34"/>
<path d="M1.03205 17.745C1.18476 17.557 1.36578 17.4513 1.57511 17.428C1.78257 17.403 1.99343 17.4776 2.20771 17.6517L3.1184 18.3916L2.91225 18.6453L2.03822 17.9352C1.88409 17.81 1.7353 17.7531 1.59187 17.7645C1.44656 17.7744 1.31969 17.8461 1.21127 17.9795C1.10133 18.1148 1.05581 18.2573 1.07473 18.4068C1.09518 18.5545 1.18623 18.694 1.34788 18.8253L2.20218 19.5193L1.99374 19.7759L0.448671 18.5207L0.657112 18.2641L0.877031 18.4428C0.839315 18.3279 0.833963 18.2097 0.860975 18.0881C0.889514 17.9646 0.94654 17.8502 1.03205 17.745Z" fill="#CF3C34"/>
<path d="M3.02886 16.048L3.8363 16.8993C3.90297 16.9696 3.9654 17.0055 4.0236 17.0071C4.08014 17.0069 4.14531 16.9718 4.21911 16.9018L4.3957 16.7343L4.58818 16.9372L4.37206 17.1422C4.23851 17.2689 4.10919 17.3331 3.98409 17.3349C3.85899 17.3368 3.72978 17.2674 3.59646 17.1268L2.78901 16.2755L2.60188 16.453L2.41439 16.2553L2.60152 16.0778L2.25655 15.7141L2.4964 15.4866L2.84137 15.8503L3.21828 15.4929L3.40576 15.6905L3.02886 16.048Z" fill="#CF3C34"/>
<path d="M4.63859 15.5462C4.51934 15.3814 4.44835 15.213 4.42563 15.0412C4.40148 14.8673 4.42245 14.7042 4.48852 14.5518C4.55656 14.3979 4.6622 14.2692 4.80543 14.1656C4.94669 14.0633 5.09133 14.005 5.23932 13.9906C5.38732 13.9762 5.52018 13.9966 5.63792 14.052L5.42498 13.7576L5.69574 13.5617L6.86265 15.1745L6.59189 15.3704L6.37469 15.0703C6.38986 15.2028 6.36718 15.3387 6.30665 15.4782C6.24667 15.6142 6.14703 15.7327 6.00772 15.8335C5.86449 15.9371 5.70945 15.9955 5.54258 16.0086C5.37571 16.0217 5.21279 15.9886 5.0538 15.9094C4.89482 15.8301 4.75641 15.7091 4.63859 15.5462ZM6.0063 14.5611C5.91829 14.4395 5.81711 14.3512 5.70275 14.2965C5.5884 14.2417 5.472 14.2213 5.35356 14.2353C5.23567 14.2458 5.12669 14.2873 5.02662 14.3597C4.92656 14.4321 4.85236 14.5217 4.80402 14.6284C4.75569 14.7351 4.73964 14.8513 4.75589 14.9771C4.77215 15.1028 4.82428 15.2265 4.91229 15.3482C5.00173 15.4718 5.10433 15.5619 5.2201 15.6187C5.33446 15.6734 5.45058 15.6955 5.56848 15.685C5.68496 15.6724 5.79323 15.63 5.89329 15.5576C5.99336 15.4852 6.06756 15.3956 6.11589 15.2889C6.16477 15.1788 6.18108 15.0609 6.16483 14.9351C6.14716 14.8074 6.09432 14.6827 6.0063 14.5611Z" fill="#CF3C34"/>
<path d="M6.84195 12.0859L8.14437 14.4375L7.85519 14.5976L6.55277 12.2461L6.84195 12.0859Z" fill="#CF3C34"/>
<path d="M10.1743 12.393C10.1121 12.1967 10.0972 12.0135 10.1296 11.8431C10.1613 11.6705 10.2336 11.5219 10.3465 11.3972C10.4617 11.2717 10.6093 11.1805 10.7894 11.1234C11.0226 11.0495 11.2321 11.0454 11.418 11.1109C11.6062 11.1758 11.7564 11.3009 11.8685 11.4864L11.5292 11.594C11.4603 11.4888 11.3679 11.4177 11.252 11.3808C11.1385 11.3431 11.0124 11.3462 10.8739 11.3901C10.6938 11.4471 10.5681 11.5556 10.4968 11.7153C10.4248 11.8728 10.4246 12.0647 10.4963 12.2909C10.5688 12.5195 10.6801 12.6785 10.8304 12.7681C10.9808 12.8576 11.146 12.8739 11.326 12.8168C11.4645 12.7729 11.5697 12.704 11.6416 12.6101C11.7135 12.5162 11.7477 12.4037 11.7443 12.2727L12.0836 12.1652C12.0943 12.3752 12.0421 12.5632 11.927 12.7292C11.8113 12.8929 11.6391 13.011 11.4105 13.0834C11.2305 13.1405 11.0572 13.1509 10.8908 13.1148C10.7267 13.0779 10.5819 12.998 10.4566 12.8751C10.3313 12.7522 10.2372 12.5915 10.1743 12.393Z" fill="#CF3C34"/>
<path d="M13.0226 11.5603C12.9921 11.3591 13.0062 11.177 13.0648 11.0138C13.123 10.8482 13.2164 10.7129 13.345 10.6077C13.476 10.5021 13.6289 10.4361 13.8037 10.4097C13.9761 10.3836 14.1314 10.3981 14.2695 10.4531C14.4077 10.5081 14.5164 10.5872 14.5957 10.6903L14.5413 10.3311L14.8718 10.2811L15.1696 12.2494L14.8391 12.2994L14.7837 11.9331C14.7364 12.0578 14.654 12.1682 14.5363 12.2644C14.4206 12.3579 14.2777 12.4174 14.1077 12.4432C13.9329 12.4696 13.7684 12.4504 13.614 12.3856C13.4597 12.3208 13.3301 12.2167 13.2251 12.0734C13.1202 11.9301 13.0526 11.759 13.0226 11.5603ZM14.6897 11.3117C14.6672 11.1632 14.6177 11.0385 14.5412 10.9374C14.4647 10.8363 14.3706 10.7648 14.2589 10.7229C14.1493 10.6783 14.0334 10.6652 13.9113 10.6837C13.7892 10.7021 13.6822 10.7477 13.5903 10.8204C13.4984 10.8931 13.4309 10.989 13.3877 11.1082C13.3445 11.2274 13.3341 11.3613 13.3566 11.5097C13.3794 11.6606 13.4293 11.7878 13.5062 11.8912C13.5827 11.9923 13.6758 12.0652 13.7854 12.1098C13.8947 12.1521 14.0104 12.164 14.1325 12.1455C14.2546 12.127 14.3616 12.0814 14.4535 12.0088C14.5474 11.9333 14.6159 11.836 14.6591 11.7168C14.702 11.5952 14.7121 11.4602 14.6897 11.3117Z" fill="#CF3C34"/>
<path d="M16.6149 10.5153C16.671 10.4004 16.7518 10.3106 16.8572 10.2458C16.9651 10.1809 17.0965 10.1471 17.2515 10.1444L17.2575 10.4858L17.1703 10.4873C16.7998 10.4938 16.6181 10.6981 16.6252 11.1L16.6442 12.1824L16.3137 12.1882L16.2787 10.1978L16.6092 10.192L16.6149 10.5153Z" fill="#CF3C34"/>
<path d="M20.1431 11.3281C20.1362 11.3907 20.1254 11.4565 20.1105 11.5255L18.5288 11.3524C18.5195 11.5487 18.569 11.7089 18.6773 11.8328C18.7882 11.9545 18.9303 12.0249 19.1036 12.0439C19.2457 12.0594 19.3672 12.0398 19.4682 11.9851C19.5719 11.9282 19.649 11.8465 19.6997 11.74L20.0536 11.7788C19.9798 11.9631 19.8569 12.1068 19.6848 12.2098C19.513 12.3104 19.3091 12.3478 19.0732 12.3219C18.8854 12.3014 18.7215 12.2408 18.5815 12.1402C18.4439 12.0399 18.3414 11.9081 18.274 11.7448C18.2068 11.5791 18.1845 11.3939 18.2068 11.1893C18.2292 10.9847 18.2898 10.8098 18.3885 10.6647C18.4872 10.5196 18.6145 10.4141 18.7703 10.3483C18.9288 10.2804 19.1043 10.257 19.2969 10.2781C19.4847 10.2986 19.6463 10.3577 19.7818 10.4554C19.9173 10.553 20.0156 10.6783 20.0769 10.8312C20.1408 10.9819 20.1628 11.1476 20.1431 11.3281ZM19.8111 11.2223C19.8248 11.0972 19.8089 10.987 19.7633 10.8919C19.7179 10.7943 19.6496 10.7174 19.5583 10.6611C19.4697 10.6027 19.3676 10.5672 19.252 10.5545C19.0859 10.5364 18.9381 10.5738 18.8085 10.6668C18.6814 10.7601 18.5991 10.8997 18.5617 11.0856L19.8111 11.2223Z" fill="#CF3C34"/>
<path d="M23.2129 12.4184C23.0959 12.3788 23.0097 12.305 22.9542 12.1967C22.9019 12.087 22.8954 11.9736 22.935 11.8566C22.9753 11.7373 23.0492 11.6511 23.1567 11.598C23.2672 11.5433 23.3809 11.5357 23.4979 11.5753C23.6172 11.6156 23.7042 11.691 23.7589 11.8015C23.8143 11.9098 23.8219 12.0235 23.7816 12.1428C23.742 12.2598 23.667 12.3457 23.5565 12.4003C23.4467 12.4527 23.3322 12.4587 23.2129 12.4184Z" fill="#CF3C34"/>
</svg>
