<svg width="46" height="46" viewBox="0 0 46 46" fill="none" xmlns="http://www.w3.org/2000/svg">
<circle cx="23" cy="23" r="23" fill="white"/>
<path d="M21.7047 15.5179C23.2313 15.5179 24.5653 15.8205 25.7068 16.4256C26.8483 17.0308 27.7285 17.8835 28.3474 18.9837C28.9801 20.0702 29.2964 21.3286 29.2964 22.759C29.2964 24.1755 28.9801 25.434 28.3474 26.5342C27.7285 27.6345 26.8415 28.4872 25.6862 29.0923C24.5447 29.6974 23.2175 30 21.7047 30H16.279V15.5179H21.7047ZM21.4777 26.9468C22.8118 26.9468 23.8502 26.5823 24.5928 25.8534C25.3355 25.1245 25.7068 24.093 25.7068 22.759C25.7068 21.4249 25.3355 20.3865 24.5928 19.6439C23.8502 18.9012 22.8118 18.5299 21.4777 18.5299H19.8067V26.9468H21.4777Z" fill="black"/>
</svg>
