<svg width="35" height="35" viewBox="0 0 35 35" fill="none" xmlns="http://www.w3.org/2000/svg">
<path d="M14.1608 21.124C15.1768 20.308 15.9728 19.64 16.5488 19.12C17.1248 18.592 17.6088 18.044 18.0008 17.476C18.4008 16.9 18.6008 16.336 18.6008 15.784C18.6008 15.264 18.4728 14.856 18.2168 14.56C17.9688 14.256 17.5648 14.104 17.0048 14.104C16.4608 14.104 16.0368 14.276 15.7328 14.62C15.4368 14.956 15.2768 15.408 15.2528 15.976H14.1968C14.2288 15.08 14.5008 14.388 15.0128 13.9C15.5248 13.412 16.1848 13.168 16.9928 13.168C17.8168 13.168 18.4688 13.396 18.9488 13.852C19.4368 14.308 19.6808 14.936 19.6808 15.736C19.6808 16.4 19.4808 17.048 19.0808 17.68C18.6888 18.304 18.2408 18.856 17.7368 19.336C17.2328 19.808 16.5888 20.36 15.8048 20.992H19.9328V21.904H14.1608V21.124Z" fill="black"/>
<circle cx="17.5" cy="17.5" r="17" stroke="black"/>
</svg>
