<svg width="35" height="35" viewBox="0 0 35 35" fill="none" xmlns="http://www.w3.org/2000/svg">
<path d="M14.1868 15.508C14.2428 14.772 14.5268 14.196 15.0388 13.78C15.5508 13.364 16.2148 13.156 17.0308 13.156C17.5748 13.156 18.0428 13.256 18.4348 13.456C18.8348 13.648 19.1348 13.912 19.3348 14.248C19.5428 14.584 19.6468 14.964 19.6468 15.388C19.6468 15.884 19.5028 16.312 19.2148 16.672C18.9348 17.032 18.5668 17.264 18.1108 17.368V17.428C18.6308 17.556 19.0428 17.808 19.3468 18.184C19.6508 18.56 19.8028 19.052 19.8028 19.66C19.8028 20.116 19.6988 20.528 19.4908 20.896C19.2828 21.256 18.9708 21.54 18.5548 21.748C18.1388 21.956 17.6388 22.06 17.0548 22.06C16.2068 22.06 15.5108 21.84 14.9668 21.4C14.4228 20.952 14.1188 20.32 14.0548 19.504H15.1108C15.1668 19.984 15.3628 20.376 15.6988 20.68C16.0348 20.984 16.4828 21.136 17.0428 21.136C17.6028 21.136 18.0268 20.992 18.3148 20.704C18.6108 20.408 18.7588 20.028 18.7588 19.564C18.7588 18.964 18.5588 18.532 18.1588 18.268C17.7588 18.004 17.1548 17.872 16.3468 17.872H16.0708V16.96H16.3588C17.0948 16.952 17.6508 16.832 18.0268 16.6C18.4028 16.36 18.5908 15.992 18.5908 15.496C18.5908 15.072 18.4508 14.732 18.1708 14.476C17.8988 14.22 17.5068 14.092 16.9948 14.092C16.4988 14.092 16.0988 14.22 15.7948 14.476C15.4908 14.732 15.3108 15.076 15.2548 15.508H14.1868Z" fill="black"/>
<circle cx="17.5" cy="17.5" r="17" stroke="black"/>
</svg>
