<svg width="236" height="237" viewBox="0 0 236 237" fill="none" xmlns="http://www.w3.org/2000/svg">
<path d="M191.917 100.853C191.822 100.399 191.898 99.9781 192.143 99.592C192.399 99.2129 192.754 98.976 193.209 98.8812C193.673 98.7845 194.093 98.8597 194.471 99.1068C194.859 99.3609 195.1 99.7154 195.195 100.17C195.291 100.634 195.213 101.06 194.959 101.448C194.713 101.834 194.359 102.075 193.895 102.172C193.44 102.267 193.019 102.187 192.631 101.933C192.252 101.677 192.014 101.317 191.917 100.853Z" fill="#CF3C34"/>
<path d="M194.442 113.136C195.207 113.15 195.874 113.316 196.442 113.636C197.02 113.956 197.463 114.387 197.773 114.93C198.082 115.482 198.231 116.095 198.219 116.769C198.209 117.352 198.063 117.892 197.781 118.388C197.508 118.885 197.15 119.261 196.708 119.517L200.671 119.587L200.649 120.844L190.538 120.667L190.56 119.41L191.967 119.434C191.525 119.181 191.163 118.81 190.88 118.322C190.606 117.834 190.475 117.267 190.486 116.62C190.498 115.955 190.672 115.353 191.01 114.812C191.347 114.28 191.814 113.865 192.412 113.565C193.009 113.266 193.686 113.123 194.442 113.136ZM194.317 119.476C194.882 119.485 195.376 119.38 195.799 119.16C196.222 118.939 196.546 118.635 196.772 118.248C197.006 117.869 197.127 117.447 197.136 116.983C197.144 116.518 197.042 116.093 196.83 115.706C196.618 115.32 196.305 115.009 195.89 114.774C195.475 114.539 194.985 114.417 194.42 114.407C193.846 114.397 193.343 114.502 192.911 114.722C192.488 114.942 192.159 115.242 191.925 115.621C191.7 115.999 191.583 116.421 191.575 116.885C191.567 117.35 191.668 117.775 191.88 118.162C192.101 118.557 192.419 118.873 192.834 119.108C193.258 119.343 193.753 119.466 194.317 119.476Z" fill="#CF3C34"/>
<path d="M192.891 132.377C192.658 132.336 192.413 132.279 192.158 132.206L193.195 126.311C192.461 126.228 191.848 126.375 191.356 126.751C190.872 127.137 190.573 127.653 190.459 128.299C190.366 128.829 190.409 129.29 190.59 129.682C190.778 130.085 191.066 130.395 191.453 130.611L191.221 131.93C190.547 131.608 190.038 131.111 189.694 130.44C189.358 129.771 189.268 128.996 189.423 128.117C189.546 127.417 189.813 126.817 190.225 126.316C190.636 125.824 191.156 125.471 191.785 125.258C192.423 125.047 193.124 125.008 193.887 125.143C194.649 125.277 195.291 125.547 195.811 125.953C196.332 126.359 196.697 126.863 196.905 127.464C197.121 128.075 197.166 128.74 197.04 129.458C196.917 130.158 196.655 130.75 196.255 131.234C195.856 131.719 195.361 132.058 194.772 132.25C194.191 132.453 193.564 132.495 192.891 132.377ZM193.369 131.157C193.836 131.239 194.253 131.206 194.621 131.058C194.999 130.911 195.304 130.674 195.538 130.345C195.779 130.027 195.937 129.652 196.013 129.222C196.122 128.602 196.018 128.038 195.7 127.529C195.381 127.029 194.878 126.686 194.189 126.5L193.369 131.157Z" fill="#CF3C34"/>
<path d="M194.018 141.22C193.725 142.083 193.224 142.692 192.516 143.047C191.817 143.406 190.975 143.418 189.992 143.084L185.813 141.662L186.21 140.498L190.22 141.862C190.927 142.103 191.526 142.109 192.018 141.882C192.517 141.657 192.871 141.239 193.08 140.627C193.291 140.006 193.266 139.444 193.004 138.941C192.739 138.447 192.236 138.073 191.494 137.821L187.574 136.487L187.975 135.31L195.064 137.722L194.663 138.899L193.654 138.556C193.937 138.912 194.111 139.322 194.174 139.786C194.234 140.259 194.182 140.737 194.018 141.22Z" fill="#CF3C34"/>
<path d="M189.186 149.818L185.226 147.869C184.899 147.708 184.632 147.662 184.425 147.733C184.226 147.808 184.042 148.016 183.873 148.36L183.468 149.181L182.524 148.716L183.019 147.711C183.325 147.09 183.697 146.694 184.136 146.525C184.575 146.355 185.122 146.431 185.776 146.753L189.735 148.703L190.164 147.832L191.083 148.285L190.655 149.155L192.347 149.988L191.797 151.104L190.106 150.271L189.242 152.024L188.323 151.571L189.186 149.818Z" fill="#CF3C34"/>
<path d="M184.158 153.696C184.794 154.121 185.264 154.623 185.569 155.199C185.881 155.781 186.02 156.384 185.986 157.008C185.946 157.64 185.742 158.232 185.372 158.784C185.007 159.329 184.573 159.724 184.069 159.968C183.566 160.212 183.071 160.313 182.583 160.272L183.718 161.032L183.019 162.077L176.797 157.91L177.496 156.865L178.654 157.641C178.428 157.193 178.331 156.684 178.362 156.113C178.396 155.554 178.593 155.006 178.953 154.469C179.323 153.916 179.794 153.508 180.366 153.244C180.937 152.98 181.555 152.884 182.219 152.956C182.884 153.028 183.53 153.275 184.158 153.696ZM180.619 158.956C181.088 159.27 181.56 159.45 182.035 159.494C182.51 159.538 182.947 159.458 183.347 159.254C183.749 159.063 184.079 158.774 184.338 158.388C184.596 158.002 184.741 157.589 184.773 157.15C184.804 156.71 184.709 156.279 184.487 155.857C184.266 155.434 183.92 155.066 183.451 154.751C182.974 154.432 182.495 154.248 182.012 154.199C181.537 154.155 181.099 154.229 180.697 154.42C180.302 154.616 179.975 154.907 179.717 155.293C179.458 155.679 179.313 156.092 179.282 156.532C179.253 156.984 179.35 157.421 179.571 157.843C179.8 158.271 180.149 158.642 180.619 158.956Z" fill="#CF3C34"/>
<path d="M180.898 168.784L173.234 162.187L174.045 161.245L181.709 167.841L180.898 168.784Z" fill="#CF3C34"/>
<path d="M168.734 172.056C169.209 172.667 169.501 173.294 169.609 173.938C169.723 174.588 169.662 175.207 169.426 175.794C169.183 176.387 168.781 176.902 168.221 177.338C167.494 177.903 166.761 178.191 166.019 178.203C165.271 178.219 164.577 177.974 163.94 177.466L164.997 176.643C165.377 176.925 165.796 177.055 166.253 177.034C166.703 177.019 167.143 176.843 167.575 176.508C168.135 176.071 168.437 175.525 168.48 174.868C168.529 174.218 168.279 173.541 167.731 172.837C167.177 172.125 166.577 171.709 165.929 171.589C165.282 171.469 164.678 171.628 164.117 172.064C163.686 172.4 163.405 172.78 163.274 173.205C163.143 173.63 163.169 174.072 163.352 174.53L162.295 175.352C161.983 174.625 161.922 173.893 162.111 173.158C162.306 172.429 162.759 171.788 163.471 171.234C164.032 170.797 164.63 170.534 165.264 170.445C165.891 170.361 166.506 170.454 167.108 170.724C167.711 170.994 168.253 171.438 168.734 172.056Z" fill="#CF3C34"/>
<path d="M159.766 178.716C160.135 179.385 160.324 180.047 160.33 180.699C160.34 181.359 160.188 181.958 159.871 182.497C159.547 183.041 159.094 183.473 158.511 183.794C157.937 184.112 157.37 184.263 156.811 184.249C156.252 184.235 155.765 184.098 155.351 183.838L156.012 185.034L154.911 185.642L151.291 179.086L152.392 178.479L153.066 179.699C153.07 179.197 153.216 178.7 153.506 178.207C153.792 177.726 154.218 177.33 154.785 177.017C155.367 176.696 155.973 176.548 156.602 176.576C157.231 176.603 157.824 176.801 158.381 177.17C158.939 177.538 159.4 178.054 159.766 178.716ZM154.208 181.768C154.481 182.263 154.819 182.639 155.221 182.895C155.623 183.152 156.048 183.281 156.497 183.284C156.942 183.298 157.367 183.193 157.774 182.968C158.181 182.744 158.499 182.443 158.728 182.067C158.957 181.691 159.071 181.264 159.067 180.787C159.064 180.31 158.926 179.824 158.653 179.33C158.376 178.827 158.034 178.444 157.627 178.179C157.225 177.922 156.802 177.787 156.357 177.772C155.916 177.766 155.493 177.875 155.086 178.1C154.679 178.324 154.361 178.625 154.132 179.001C153.899 179.39 153.784 179.822 153.787 180.299C153.795 180.784 153.935 181.274 154.208 181.768Z" fill="#CF3C34"/>
<path d="M148.45 187.094C148.401 187.572 148.234 187.995 147.946 188.361C147.65 188.731 147.231 189.021 146.688 189.233L146.221 188.036L146.527 187.917C147.825 187.411 148.2 186.453 147.65 185.044L146.17 181.25L147.329 180.799L150.05 187.775L148.892 188.227L148.45 187.094Z" fill="#CF3C34"/>
<path d="M134.935 188.833C134.878 188.603 134.83 188.356 134.792 188.094L140.598 186.64C140.375 185.935 139.992 185.435 139.448 185.139C138.898 184.854 138.304 184.791 137.668 184.951C137.147 185.081 136.744 185.309 136.459 185.634C136.167 185.97 136.001 186.359 135.962 186.801L134.663 187.126C134.682 186.379 134.929 185.712 135.401 185.124C135.876 184.545 136.546 184.147 137.413 183.93C138.102 183.757 138.759 183.757 139.385 183.929C140.001 184.104 140.535 184.435 140.986 184.923C141.439 185.42 141.759 186.044 141.947 186.795C142.135 187.546 142.15 188.242 141.991 188.883C141.832 189.524 141.521 190.062 141.057 190.498C140.587 190.944 139.998 191.256 139.291 191.433C138.602 191.605 137.954 191.608 137.349 191.44C136.743 191.272 136.233 190.959 135.817 190.499C135.395 190.051 135.101 189.495 134.935 188.833ZM136.244 188.772C136.359 189.232 136.559 189.6 136.845 189.876C137.132 190.161 137.473 190.343 137.869 190.422C138.258 190.513 138.664 190.505 139.088 190.399C139.698 190.246 140.171 189.921 140.507 189.424C140.833 188.929 140.942 188.329 140.831 187.624L136.244 188.772Z" fill="#CF3C34"/>
<path d="M122.672 188.995C123.136 188.981 123.537 189.13 123.874 189.439C124.202 189.758 124.373 190.149 124.386 190.614C124.399 191.087 124.251 191.488 123.941 191.816C123.623 192.153 123.231 192.328 122.767 192.341C122.293 192.355 121.888 192.202 121.551 191.884C121.214 191.574 121.039 191.183 121.025 190.709C121.012 190.245 121.165 189.844 121.484 189.507C121.802 189.179 122.198 189.008 122.672 188.995Z" fill="#CF3C34"/>
<path d="M110.137 189.315C109.989 190.066 109.707 190.693 109.292 191.196C108.875 191.708 108.373 192.069 107.784 192.278C107.186 192.485 106.556 192.523 105.895 192.393C105.323 192.28 104.817 192.041 104.378 191.676C103.938 191.32 103.63 190.902 103.456 190.421L102.689 194.309L101.456 194.066L103.412 184.145L104.645 184.388L104.373 185.769C104.701 185.379 105.13 185.087 105.66 184.895C106.188 184.711 106.77 184.682 107.404 184.807C108.057 184.936 108.619 185.214 109.092 185.641C109.556 186.067 109.883 186.6 110.072 187.241C110.261 187.882 110.283 188.573 110.137 189.315ZM103.918 188.075C103.809 188.629 103.826 189.134 103.968 189.589C104.11 190.044 104.353 190.417 104.695 190.707C105.026 191.005 105.42 191.199 105.875 191.288C106.331 191.378 106.768 191.353 107.186 191.213C107.603 191.072 107.965 190.818 108.269 190.451C108.574 190.084 108.78 189.623 108.89 189.069C109.001 188.506 108.986 187.993 108.845 187.528C108.703 187.073 108.466 186.697 108.135 186.399C107.802 186.111 107.407 185.922 106.951 185.832C106.496 185.742 106.059 185.767 105.641 185.908C105.213 186.055 104.846 186.313 104.542 186.68C104.235 187.056 104.028 187.521 103.918 188.075Z" fill="#CF3C34"/>
<path d="M91.4706 184.397C91.5521 184.175 91.6512 183.944 91.7678 183.706L97.3873 185.766C97.5985 185.057 97.5625 184.428 97.279 183.878C96.9839 183.333 96.5284 182.948 95.9126 182.722C95.408 182.537 94.9465 182.499 94.5283 182.607C94.0983 182.721 93.7428 182.95 93.4617 183.293L92.2044 182.832C92.6403 182.226 93.2189 181.812 93.9402 181.591C94.6583 181.379 95.4365 181.427 96.2748 181.734C96.9419 181.979 97.4858 182.348 97.9064 182.842C98.3184 183.332 98.5737 183.906 98.6724 184.563C98.7679 185.229 98.6824 185.925 98.4159 186.652C98.1493 187.379 97.7703 187.963 97.2788 188.404C96.7873 188.845 96.2274 189.115 95.599 189.215C94.959 189.32 94.2968 189.247 93.6125 188.996C92.9454 188.751 92.4085 188.389 92.0019 187.91C91.5953 187.431 91.3493 186.885 91.2637 186.272C91.1664 185.664 91.2354 185.039 91.4706 184.397ZM92.5872 185.083C92.4242 185.528 92.383 185.945 92.4637 186.333C92.5413 186.73 92.7213 187.073 93.0039 187.361C93.2748 187.654 93.6155 187.876 94.026 188.027C94.6162 188.243 95.1898 188.24 95.7469 188.017C96.2955 187.791 96.722 187.356 97.0264 186.711L92.5872 185.083Z" fill="#CF3C34"/>
<path d="M82.5669 183.948C81.7697 183.508 81.2584 182.907 81.033 182.148C80.8032 181.396 80.9395 180.566 81.4421 179.657L83.5779 175.794L84.6542 176.389L82.6043 180.097C82.2429 180.75 82.1308 181.339 82.2681 181.863C82.401 182.394 82.7505 182.816 83.3165 183.129C83.8905 183.447 84.4481 183.521 84.9893 183.352C85.5225 183.178 85.9787 182.748 86.3578 182.063L88.3614 178.439L89.4496 179.041L85.826 185.594L84.7378 184.993L85.2535 184.06C84.8531 184.276 84.4189 184.374 83.9507 184.354C83.4747 184.331 83.0134 184.195 82.5669 183.948Z" fill="#CF3C34"/>
<path d="M74.9549 177.677L77.5719 174.122C77.788 173.829 77.8796 173.574 77.8467 173.357C77.8084 173.148 77.6352 172.93 77.3271 172.703L76.5898 172.161L77.2137 171.313L78.116 171.978C78.6736 172.388 78.9972 172.824 79.0869 173.286C79.1766 173.748 79.0054 174.273 78.5733 174.86L75.9562 178.414L76.7375 178.989L76.1298 179.815L75.3486 179.239L74.2304 180.758L73.2291 180.021L74.3472 178.502L72.7736 177.343L73.3813 176.518L74.9549 177.677Z" fill="#CF3C34"/>
<path d="M72.0246 172.044C71.4934 172.595 70.9171 172.97 70.2957 173.168C69.668 173.372 69.05 173.403 68.4418 173.259C67.827 173.109 67.2803 172.804 66.8016 172.342C66.3295 171.887 66.0177 171.39 65.8662 170.851C65.7147 170.313 65.7023 169.807 65.829 169.335L64.8804 170.318L63.9755 169.445L69.1739 164.055L70.0788 164.928L69.1112 165.931C69.5918 165.787 70.1104 165.781 70.6668 165.913C71.2104 166.045 71.715 166.335 72.1806 166.784C72.6593 167.246 72.9782 167.781 73.1374 168.39C73.2967 169 73.2822 169.625 73.0941 170.266C72.906 170.907 72.5495 171.5 72.0246 172.044ZM67.4701 167.633C67.078 168.04 66.8185 168.473 66.6915 168.932C66.5646 169.392 66.5662 169.837 66.6964 170.266C66.8137 170.696 67.0395 171.072 67.374 171.394C67.7084 171.717 68.0892 171.932 68.5164 172.04C68.9436 172.148 69.3846 172.131 69.8394 171.987C70.2943 171.844 70.7177 171.569 71.1098 171.162C71.5082 170.749 71.7741 170.309 71.9074 169.843C72.0344 169.383 72.0392 168.939 71.9219 168.509C71.7983 168.086 71.5692 167.713 71.2348 167.391C70.9004 167.068 70.5196 166.853 70.0924 166.745C69.6523 166.637 69.2049 166.654 68.75 166.798C68.2889 166.948 67.8622 167.226 67.4701 167.633Z" fill="#CF3C34"/>
<path d="M57.747 166.176L65.5911 159.794L66.3758 160.759L58.5318 167.14L57.747 166.176Z" fill="#CF3C34"/>
<path d="M56.6696 153.625C55.9842 153.986 55.3155 154.162 54.6633 154.155C54.0031 154.153 53.4047 153.983 52.8681 153.648C52.3273 153.305 51.8915 152.818 51.5609 152.189C51.1327 151.375 50.9783 150.602 51.0979 149.87C51.2132 149.13 51.5771 148.491 52.1896 147.953L52.8128 149.138C52.4689 149.463 52.267 149.852 52.207 150.306C52.1427 150.751 52.2378 151.216 52.4922 151.7C52.8229 152.329 53.3077 152.722 53.9466 152.88C54.5774 153.043 55.288 152.916 56.0782 152.501C56.8765 152.081 57.3916 151.563 57.6235 150.947C57.8554 150.331 57.8061 149.709 57.4754 149.08C57.221 148.596 56.8961 148.252 56.5008 148.048C56.1054 147.844 55.6663 147.792 55.1834 147.892L54.5602 146.706C55.3308 146.528 56.0616 146.596 56.7527 146.912C57.4356 147.233 57.987 147.792 58.4067 148.59C58.7374 149.219 58.8909 149.854 58.8673 150.494C58.8395 151.126 58.6396 151.715 58.2677 152.26C57.8958 152.806 57.3631 153.261 56.6696 153.625Z" fill="#CF3C34"/>
<path d="M51.695 143.624C50.9703 143.87 50.2865 143.938 49.6435 143.83C48.9918 143.724 48.4286 143.468 47.9539 143.061C47.4762 142.646 47.1304 142.124 46.9166 141.494C46.7057 140.873 46.6564 140.288 46.7685 139.74C46.8807 139.192 47.1014 138.737 47.4307 138.375L46.1368 138.815L45.7326 137.624L52.8234 135.217L53.2276 136.407L51.9078 136.855C52.4009 136.948 52.8646 137.18 53.2988 137.552C53.7215 137.918 54.0368 138.408 54.2447 139.02C54.4586 139.65 54.4966 140.272 54.3589 140.886C54.2212 141.501 53.9217 142.05 53.4606 142.533C52.9995 143.017 52.4109 143.381 51.695 143.624ZM49.6692 137.615C49.1344 137.797 48.7052 138.063 48.3816 138.413C48.058 138.764 47.8557 139.16 47.7746 139.601C47.682 140.036 47.7104 140.474 47.8598 140.914C48.0091 141.354 48.2489 141.72 48.5789 142.012C48.909 142.304 49.309 142.49 49.779 142.571C50.2491 142.652 50.7515 142.602 51.2863 142.42C51.8298 142.236 52.2676 141.967 52.5998 141.614C52.9234 141.263 53.1315 140.87 53.2242 140.435C53.3082 140.002 53.2755 139.566 53.1261 139.126C52.9767 138.686 52.737 138.32 52.4069 138.028C52.0653 137.73 51.6595 137.541 51.1895 137.46C50.7108 137.382 50.2041 137.434 49.6692 137.615Z" fill="#CF3C34"/>
<path d="M45.4422 131.008C44.9798 130.877 44.5937 130.637 44.2837 130.29C43.972 129.933 43.7597 129.469 43.6469 128.897L44.9071 128.648L44.9706 128.97C45.2403 130.338 46.117 130.875 47.6007 130.583L51.5959 129.795L51.8365 131.015L44.4896 132.464L44.249 131.244L45.4422 131.008Z" fill="#CF3C34"/>
<path d="M46.1125 117.399C46.3488 117.383 46.5997 117.38 46.8651 117.389L47.2728 123.36C48.0059 123.265 48.566 122.975 48.953 122.492C49.3304 122.001 49.4967 121.428 49.4521 120.773C49.4154 120.237 49.2623 119.8 48.9927 119.462C48.7134 119.116 48.3598 118.885 47.9318 118.768L47.8406 117.432C48.5722 117.583 49.1858 117.943 49.6812 118.511C50.1675 119.081 50.441 119.811 50.5018 120.702C50.5502 121.411 50.4346 122.058 50.1549 122.643C49.8747 123.219 49.4546 123.686 48.8946 124.044C48.3255 124.402 47.6547 124.608 46.8822 124.661C46.1096 124.713 45.4219 124.605 44.8192 124.336C44.2164 124.067 43.7416 123.665 43.3947 123.132C43.0381 122.59 42.835 121.956 42.7854 121.229C42.737 120.52 42.8487 119.882 43.1205 119.315C43.3923 118.749 43.7909 118.302 44.3164 117.974C44.8321 117.637 45.4309 117.446 46.1125 117.399ZM45.941 118.698C45.4684 118.731 45.071 118.863 44.749 119.095C44.4179 119.327 44.1784 119.631 44.0305 120.007C43.873 120.374 43.8091 120.775 43.8389 121.211C43.8817 121.839 44.1182 122.361 44.5485 122.779C44.9782 123.188 45.5497 123.4 46.263 123.415L45.941 118.698Z" fill="#CF3C34"/>
<path d="M48.1142 105.299C48.0453 105.759 47.8289 106.127 47.465 106.404C47.0934 106.671 46.6778 106.77 46.2183 106.701C45.7498 106.63 45.3816 106.414 45.1135 106.051C44.8378 105.678 44.7344 105.262 44.8033 104.803C44.8736 104.334 45.0952 103.962 45.4681 103.686C45.8321 103.409 46.2483 103.306 46.7168 103.376C47.1763 103.445 47.5439 103.666 47.8196 104.039C48.0863 104.411 48.1845 104.831 48.1142 105.299Z" fill="#CF3C34"/>
<path d="M50.0078 92.9035C49.2948 92.6254 48.7273 92.2379 48.3051 91.7408C47.8744 91.2403 47.6082 90.6818 47.5065 90.0652C47.408 89.4401 47.4812 88.8135 47.7262 88.1855C47.938 87.6423 48.2623 87.1869 48.6989 86.8194C49.1271 86.4486 49.5929 86.2196 50.0963 86.1323L46.4043 84.6925L46.861 83.5212L56.2821 87.1953L55.8253 88.3665L54.514 87.8552C54.8405 88.2465 55.0519 88.7201 55.148 89.2758C55.2357 89.8283 55.1621 90.4058 54.927 91.0084C54.6854 91.628 54.3125 92.1328 53.8084 92.5229C53.3075 92.9045 52.725 93.132 52.0608 93.2054C51.3966 93.2788 50.7122 93.1782 50.0078 92.9035ZM52.3243 87.0012C51.798 86.796 51.2983 86.7233 50.8252 86.7832C50.352 86.8432 49.9424 87.0159 49.5964 87.3014C49.2452 87.5751 48.9852 87.9284 48.8163 88.3613C48.6475 88.7941 48.5955 89.2285 48.6601 89.6644C48.7248 90.1003 48.911 90.5005 49.2187 90.865C49.5263 91.2294 49.9433 91.5142 50.4695 91.7195C51.0042 91.928 51.5124 92.004 51.9941 91.9473C52.4672 91.8874 52.8794 91.7206 53.2306 91.4469C53.5733 91.1698 53.8291 90.8149 53.9979 90.382C54.1667 89.9492 54.2188 89.5148 54.1541 89.0789C54.0843 88.6312 53.8955 88.2251 53.5878 87.8606C53.2717 87.4929 52.8505 87.2064 52.3243 87.0012Z" fill="#CF3C34"/>
<path d="M58.1386 75.3964C58.3431 75.5159 58.5525 75.654 58.7669 75.8108L55.7486 80.9793C56.4088 81.3121 57.0347 81.3875 57.6262 81.2055C58.2145 81.011 58.6741 80.6306 59.0049 80.0642C59.2759 79.6 59.3948 79.1525 59.3616 78.7217C59.3251 78.2784 59.1626 77.8881 58.8743 77.5509L59.5496 76.3945C60.07 76.9305 60.3753 77.573 60.4654 78.3219C60.5477 79.0662 60.3637 79.8238 59.9135 80.5948C59.5551 81.2084 59.0959 81.6787 58.5357 82.0056C57.9801 82.3247 57.3702 82.4749 56.7059 82.4562C56.0338 82.433 55.3634 82.2261 54.6947 81.8356C54.026 81.4451 53.518 80.9691 53.1708 80.4076C52.8235 79.8461 52.6562 79.2473 52.669 78.6112C52.6785 77.9627 52.867 77.3238 53.2345 76.6944C53.5929 76.0808 54.0436 75.6161 54.5867 75.3003C55.1298 74.9845 55.7109 74.8385 56.3299 74.8624C56.9457 74.8739 57.5486 75.0519 58.1386 75.3964ZM57.2666 76.3747C56.8575 76.1358 56.4546 76.0219 56.0579 76.0328C55.6533 76.0392 55.2844 76.156 54.9511 76.3834C54.6146 76.5984 54.3361 76.8946 54.1156 77.2722C53.7986 77.815 53.7006 78.3803 53.8216 78.9679C53.9473 79.5476 54.3008 80.0442 54.8823 80.4576L57.2666 76.3747Z" fill="#CF3C34"/>
<path d="M60.1495 66.7113C60.7239 66.0042 61.4048 65.6067 62.1923 65.5187C62.9727 65.425 63.7659 65.7056 64.572 66.3604L67.9978 69.1435L67.2223 70.0981L63.9344 67.427C63.3546 66.9559 62.7949 66.7419 62.2553 66.7848C61.7087 66.8219 61.2315 67.0915 60.8236 67.5935C60.41 68.1026 60.2388 68.6384 60.31 69.201C60.3869 69.7564 60.7294 70.2812 61.3375 70.7752L64.5512 73.386L63.7671 74.3511L57.9549 69.6293L58.739 68.6642L59.5663 69.3362C59.4244 68.9041 59.4043 68.4593 59.5059 68.0019C59.6133 67.5375 59.8278 67.1073 60.1495 66.7113Z" fill="#CF3C34"/>
<path d="M67.6647 60.3238L70.7021 63.5262C70.9528 63.7906 71.1877 63.9257 71.4066 63.9315C71.6193 63.9307 71.8645 63.7986 72.1421 63.5353L72.8064 62.9053L73.5304 63.6687L72.7174 64.4398C72.2151 64.9163 71.7286 65.158 71.258 65.1648C70.7874 65.1717 70.3014 64.9108 69.7998 64.382L66.7624 61.1795L66.0585 61.8472L65.3532 61.1035L66.0571 60.4359L64.7594 59.0676L65.6617 58.2119L66.9594 59.5801L68.3772 58.2354L69.0825 58.979L67.6647 60.3238Z" fill="#CF3C34"/>
<path d="M73.7252 58.4319C73.2766 57.8119 73.0096 57.1787 72.9241 56.5321C72.8333 55.8782 72.9121 55.2645 73.1607 54.6911C73.4166 54.1124 73.814 53.6281 74.3528 53.2383C74.8842 52.8538 75.4283 52.6344 75.985 52.5802C76.5417 52.526 77.0415 52.6029 77.4844 52.8109L76.6834 51.7038L77.7019 50.9669L82.0916 57.0338L81.073 57.7708L80.256 56.6415C80.313 57.14 80.2277 57.6515 80 58.176C79.7744 58.6879 79.3996 59.1334 78.8755 59.5125C78.3367 59.9023 77.7535 60.1219 77.1258 60.1713C76.4981 60.2207 75.8852 60.0963 75.2871 59.7981C74.6891 59.4999 74.1684 59.0445 73.7252 58.4319ZM78.8702 54.7262C78.5391 54.2686 78.1585 53.9368 77.7283 53.7308C77.2981 53.5248 76.8603 53.448 76.4148 53.5005C75.9713 53.5403 75.5613 53.6963 75.1849 53.9687C74.8085 54.241 74.5293 54.5779 74.3475 54.9794C74.1657 55.3808 74.1053 55.818 74.1665 56.291C74.2276 56.764 74.4237 57.2293 74.7548 57.687C75.0912 58.1519 75.4772 58.4911 75.9127 58.7045C76.3429 58.9105 76.7797 58.9936 77.2232 58.9539C77.6614 58.9067 78.0686 58.747 78.4451 58.4746C78.8215 58.2023 79.1006 57.8654 79.2824 57.464C79.4663 57.0498 79.5277 56.6062 79.4665 56.1332C79.4001 55.6528 79.2013 55.1838 78.8702 54.7262Z" fill="#CF3C34"/>
<path d="M82.0182 45.4121L86.9175 54.2581L85.8297 54.8606L80.9304 46.0146L82.0182 45.4121Z" fill="#CF3C34"/>
<path d="M94.562 46.5634C94.328 45.8252 94.272 45.1358 94.3939 44.4951C94.513 43.8457 94.785 43.2865 95.2097 42.8174C95.6432 42.3456 96.1986 42.0024 96.8759 41.7877C97.7531 41.5097 98.5413 41.4941 99.2406 41.7407C99.9487 41.9846 100.514 42.4554 100.935 43.1532L99.6588 43.5578C99.3996 43.1621 99.052 42.8947 98.6162 42.7557C98.189 42.6139 97.7149 42.6256 97.1938 42.7907C96.5164 43.0054 96.0436 43.4133 95.7754 44.0143C95.5044 44.6067 95.5037 45.3284 95.7734 46.1795C96.0459 47.0392 96.4649 47.6375 97.0303 47.9744C97.5958 48.3113 98.2172 48.3724 98.8946 48.1577C99.4157 47.9926 99.8113 47.7334 100.082 47.3801C100.352 47.0269 100.481 46.6038 100.468 46.111L101.744 45.7064C101.785 46.4964 101.588 47.2037 101.155 47.8283C100.72 48.4441 100.072 48.8883 99.2125 49.1607C98.5351 49.3754 97.8833 49.4147 97.2573 49.2786C96.6399 49.1398 96.0955 48.8393 95.6241 48.377C95.1527 47.9148 94.7987 47.3103 94.562 46.5634Z" fill="#CF3C34"/>
<path d="M105.284 43.4293C105.169 42.6727 105.222 41.9875 105.443 41.3737C105.662 40.7508 106.013 40.2416 106.497 39.8459C106.99 39.4489 107.565 39.2006 108.222 39.1011C108.871 39.003 109.455 39.0574 109.975 39.2644C110.494 39.4714 110.903 39.7689 111.201 40.1568L110.997 38.8056L112.24 38.6176L113.36 46.0217L112.117 46.2098L111.909 44.8317C111.731 45.3008 111.421 45.7163 110.978 46.0782C110.543 46.4296 110.006 46.6537 109.366 46.7505C108.708 46.85 108.089 46.7778 107.509 46.534C106.928 46.2901 106.441 45.8986 106.046 45.3595C105.651 44.8203 105.397 44.1769 105.284 43.4293ZM111.555 42.4942C111.471 41.9357 111.284 41.4664 110.997 41.0861C110.709 40.7058 110.355 40.4369 109.935 40.2793C109.522 40.1114 109.086 40.0622 108.627 40.1317C108.168 40.2012 107.765 40.3727 107.42 40.6461C107.074 40.9195 106.82 41.2804 106.657 41.7289C106.495 42.1773 106.456 42.6807 106.54 43.2392C106.626 43.8067 106.814 44.285 107.103 44.6743C107.391 45.0546 107.741 45.3287 108.154 45.4966C108.565 45.6556 109 45.7003 109.459 45.6308C109.919 45.5613 110.321 45.3898 110.667 45.1164C111.02 44.8326 111.278 44.4665 111.44 44.0181C111.601 43.5606 111.64 43.0527 111.555 42.4942Z" fill="#CF3C34"/>
<path d="M118.804 39.4977C119.015 39.0658 119.319 38.7279 119.715 38.484C120.121 38.24 120.615 38.1128 121.198 38.1026L121.221 39.3869L120.893 39.3927C119.499 39.4172 118.816 40.1854 118.842 41.6974L118.914 45.769L117.671 45.7908L117.539 38.3036L118.782 38.2817L118.804 39.4977Z" fill="#CF3C34"/>
<path d="M132.082 42.556C132.056 42.7915 132.015 43.0391 131.959 43.2987L126.01 42.6476C125.975 43.3861 126.161 43.9884 126.568 44.4545C126.985 44.9125 127.52 45.1773 128.172 45.2486C128.706 45.3071 129.163 45.2334 129.543 45.0275C129.933 44.8136 130.223 44.5063 130.414 44.1056L131.745 44.2513C131.468 44.9449 131.005 45.4854 130.358 45.8728C129.712 46.2511 128.945 46.3917 128.057 46.2946C127.351 46.2173 126.734 45.9894 126.208 45.611C125.69 45.2336 125.304 44.7378 125.051 44.1235C124.798 43.5002 124.714 42.8036 124.798 42.0339C124.883 41.2641 125.11 40.6063 125.482 40.0604C125.853 39.5145 126.332 39.1179 126.918 38.8704C127.514 38.6149 128.174 38.5268 128.899 38.6061C129.605 38.6834 130.213 38.9057 130.723 39.2731C131.233 39.6404 131.603 40.1117 131.833 40.6867C132.073 41.2537 132.156 41.8768 132.082 42.556ZM130.833 42.1582C130.885 41.6873 130.825 41.2729 130.653 40.915C130.482 40.5481 130.225 40.2588 129.882 40.0471C129.549 39.8273 129.165 39.6937 128.73 39.6461C128.105 39.5777 127.549 39.7185 127.062 40.0684C126.583 40.4193 126.274 40.9444 126.133 41.6438L130.833 42.1582Z" fill="#CF3C34"/>
<path d="M143.64 46.6589C143.199 46.5101 142.875 46.2321 142.666 45.825C142.469 45.4122 142.445 44.9858 142.594 44.5456C142.746 44.0969 143.024 43.7725 143.428 43.5726C143.844 43.3669 144.272 43.3385 144.712 43.4872C145.16 43.639 145.488 43.9227 145.693 44.3384C145.902 44.7455 145.93 45.1734 145.779 45.6222C145.63 46.0623 145.348 46.3852 144.932 46.5909C144.519 46.7879 144.088 46.8106 143.64 46.6589Z" fill="#CF3C34"/>
</svg>
