<svg width="115" height="17" viewBox="0 0 115 17" fill="none" xmlns="http://www.w3.org/2000/svg">
<path d="M0.577633 10.2237C0.577633 9.0409 0.797683 8.00254 1.23778 7.10858C1.69164 6.21463 2.30365 5.52697 3.07383 5.04561C3.84401 4.56425 4.70358 4.32357 5.65255 4.32357C6.40897 4.32357 7.09663 4.48173 7.71552 4.79805C8.34817 5.11438 8.84328 5.54072 9.20086 6.0771V0.733995H12.7285V16H9.20086V14.3496C8.87079 14.8997 8.3963 15.3398 7.77741 15.6699C7.17227 16 6.46398 16.165 5.65255 16.165C4.70358 16.165 3.84401 15.9244 3.07383 15.443C2.30365 14.9479 1.69164 14.2533 1.23778 13.3594C0.797683 12.4517 0.577633 11.4064 0.577633 10.2237ZM9.20086 10.2443C9.20086 9.3641 8.95331 8.66957 8.45819 8.1607C7.97683 7.65183 7.38545 7.3974 6.68403 7.3974C5.98262 7.3974 5.38436 7.65183 4.88925 8.1607C4.40789 8.65581 4.16721 9.34347 4.16721 10.2237C4.16721 11.1039 4.40789 11.8053 4.88925 12.3279C5.38436 12.8368 5.98262 13.0912 6.68403 13.0912C7.38545 13.0912 7.97683 12.8368 8.45819 12.3279C8.95331 11.819 9.20086 11.1245 9.20086 10.2443ZM26.1319 10.0586C26.1319 10.3887 26.1113 10.7325 26.07 11.0901H18.0863C18.1413 11.8053 18.3683 12.3554 18.7671 12.7405C19.1797 13.1118 19.6817 13.2975 20.2731 13.2975C21.1533 13.2975 21.7653 12.9262 22.1091 12.1835H25.8637C25.6712 12.9399 25.3205 13.6207 24.8116 14.2258C24.3165 14.831 23.6907 15.3055 22.9343 15.6493C22.1779 15.9931 21.3321 16.165 20.3968 16.165C19.2691 16.165 18.2651 15.9244 17.3849 15.443C16.5047 14.9616 15.817 14.274 15.3219 13.38C14.8268 12.4861 14.5793 11.4408 14.5793 10.2443C14.5793 9.04778 14.8199 8.00254 15.3013 7.10858C15.7964 6.21463 16.4841 5.52697 17.3643 5.04561C18.2445 4.56425 19.2553 4.32357 20.3968 4.32357C21.5109 4.32357 22.5011 4.55737 23.3675 5.02498C24.234 5.49259 24.9079 6.15962 25.3892 7.02606C25.8844 7.89251 26.1319 8.90337 26.1319 10.0586ZM22.5217 9.1303C22.5217 8.52516 22.3154 8.0438 21.9028 7.68622C21.4902 7.32863 20.9745 7.14984 20.3556 7.14984C19.7642 7.14984 19.2622 7.32176 18.8496 7.66559C18.4508 8.00942 18.2032 8.49765 18.1069 9.1303H22.5217ZM35.007 4.36483C36.3549 4.36483 37.4276 4.80493 38.2253 5.68513C39.0367 6.55158 39.4424 7.74811 39.4424 9.27471V16H35.9354V9.74919C35.9354 8.97901 35.736 8.38075 35.3371 7.9544C34.9383 7.52805 34.4019 7.31488 33.728 7.31488C33.0541 7.31488 32.5177 7.52805 32.1189 7.9544C31.72 8.38075 31.5206 8.97901 31.5206 9.74919V16H27.9929V4.48861H31.5206V6.01521C31.8782 5.50634 32.3596 5.1075 32.9647 4.81868C33.5698 4.51611 34.2506 4.36483 35.007 4.36483ZM48.3097 13.0087V16H46.5149C45.2359 16 44.2387 15.6906 43.5236 15.0717C42.8084 14.439 42.4508 13.4144 42.4508 11.9978V7.41803H41.048V4.48861H42.4508V1.68296H45.9785V4.48861H48.2891V7.41803H45.9785V12.0391C45.9785 12.3829 46.061 12.6305 46.2261 12.7818C46.3911 12.933 46.6662 13.0087 47.0513 13.0087H48.3097ZM49.5733 10.2237C49.5733 9.0409 49.7933 8.00254 50.2334 7.10858C50.6873 6.21463 51.2993 5.52697 52.0695 5.04561C52.8396 4.56425 53.6992 4.32357 54.6482 4.32357C55.4596 4.32357 56.1679 4.48861 56.773 4.81868C57.3919 5.14876 57.8664 5.58198 58.1965 6.11836V4.48861H61.7242V16H58.1965V14.3703C57.8527 14.9066 57.3713 15.3398 56.7524 15.6699C56.1473 16 55.439 16.165 54.6275 16.165C53.6923 16.165 52.8396 15.9244 52.0695 15.443C51.2993 14.9479 50.6873 14.2533 50.2334 13.3594C49.7933 12.4517 49.5733 11.4064 49.5733 10.2237ZM58.1965 10.2443C58.1965 9.3641 57.9489 8.66957 57.4538 8.1607C56.9725 7.65183 56.3811 7.3974 55.6797 7.3974C54.9782 7.3974 54.38 7.65183 53.8849 8.1607C53.4035 8.65581 53.1628 9.34347 53.1628 10.2237C53.1628 11.1039 53.4035 11.8053 53.8849 12.3279C54.38 12.8368 54.9782 13.0912 55.6797 13.0912C56.3811 13.0912 56.9725 12.8368 57.4538 12.3279C57.9489 11.819 58.1965 11.1245 58.1965 10.2443ZM67.804 0.733995V16H64.2763V0.733995H67.804ZM70.0716 10.3681C70.0716 9.19906 70.3054 8.18133 70.773 7.31488C71.2407 6.43468 71.887 5.76077 72.7122 5.29317C73.5374 4.81181 74.4795 4.57113 75.5385 4.57113C76.9276 4.57113 78.0691 4.91495 78.963 5.60261C79.8708 6.29027 80.4553 7.22549 80.7166 8.40826H79.1693C78.9768 7.59682 78.5573 6.96418 77.9109 6.51032C77.2783 6.04271 76.4875 5.80891 75.5385 5.80891C74.7821 5.80891 74.1013 5.98082 73.4962 6.32465C72.891 6.66848 72.4097 7.18423 72.0521 7.87188C71.7083 8.54579 71.5363 9.37785 71.5363 10.3681C71.5363 11.3583 71.7083 12.1973 72.0521 12.8849C72.4097 13.5726 72.891 14.0883 73.4962 14.4321C74.1013 14.776 74.7821 14.9479 75.5385 14.9479C76.4875 14.9479 77.2783 14.721 77.9109 14.2671C78.5573 13.7995 78.9768 13.1531 79.1693 12.3279H80.7166C80.4553 13.4832 79.8708 14.4115 78.963 15.1129C78.0553 15.8143 76.9138 16.165 75.5385 16.165C74.4795 16.165 73.5374 15.9312 72.7122 15.4636C71.887 14.9823 71.2407 14.3084 70.773 13.4419C70.3054 12.5617 70.0716 11.5371 70.0716 10.3681ZM82.7235 10.3475C82.7235 9.19219 82.9504 8.18133 83.4042 7.31488C83.8719 6.43468 84.5114 5.76077 85.3228 5.29317C86.148 4.81181 87.0763 4.57113 88.1078 4.57113C89.1806 4.57113 90.102 4.81868 90.8722 5.3138C91.6561 5.80891 92.22 6.44156 92.5639 7.21173V4.73616H94.0079V16H92.5639V13.5038C92.2063 14.274 91.6355 14.9135 90.8516 15.4224C90.0814 15.9175 89.1599 16.165 88.0872 16.165C87.0695 16.165 86.148 15.9244 85.3228 15.443C84.5114 14.9616 83.8719 14.2809 83.4042 13.4007C82.9504 12.5205 82.7235 11.5027 82.7235 10.3475ZM92.5639 10.3681C92.5639 9.46037 92.3782 8.66269 92.0068 7.97503C91.6355 7.28737 91.1266 6.75788 90.4802 6.38654C89.8476 6.01521 89.1462 5.82954 88.376 5.82954C87.5783 5.82954 86.8632 6.00833 86.2305 6.36591C85.5979 6.7235 85.0959 7.24611 84.7246 7.93377C84.367 8.60768 84.1882 9.41224 84.1882 10.3475C84.1882 11.2689 84.367 12.0803 84.7246 12.7818C85.0959 13.4694 85.5979 13.9989 86.2305 14.3703C86.8632 14.7278 87.5783 14.9066 88.376 14.9066C89.1462 14.9066 89.8476 14.721 90.4802 14.3496C91.1266 13.9783 91.6355 13.4488 92.0068 12.7611C92.3782 12.0735 92.5639 11.2758 92.5639 10.3681ZM98.7487 6.73725C99.0651 6.03584 99.5464 5.49259 100.193 5.1075C100.853 4.72241 101.658 4.52987 102.607 4.52987V6.03584H102.215C101.169 6.03584 100.33 6.31778 99.6977 6.88166C99.0651 7.44554 98.7487 8.38763 98.7487 9.70793V16H97.3047V4.73616H98.7487V6.73725ZM114.97 9.79045C114.97 10.2856 114.956 10.6638 114.929 10.9251H105.583C105.625 11.7778 105.831 12.5067 106.202 13.1118C106.574 13.717 107.062 14.1777 107.667 14.494C108.272 14.7966 108.932 14.9479 109.648 14.9479C110.583 14.9479 111.367 14.721 111.999 14.2671C112.646 13.8132 113.072 13.2012 113.278 12.4311H114.805C114.53 13.5313 113.939 14.4321 113.031 15.1336C112.137 15.8212 111.009 16.165 109.648 16.165C108.589 16.165 107.64 15.9312 106.801 15.4636C105.962 14.9823 105.302 14.3084 104.82 13.4419C104.353 12.5617 104.119 11.5371 104.119 10.3681C104.119 9.19906 104.353 8.17445 104.82 7.29425C105.288 6.41405 105.941 5.74014 106.78 5.27254C107.619 4.80493 108.575 4.57113 109.648 4.57113C110.72 4.57113 111.655 4.80493 112.453 5.27254C113.265 5.74014 113.884 6.37279 114.31 7.17047C114.75 7.9544 114.97 8.82773 114.97 9.79045ZM113.505 9.74919C113.519 8.91025 113.347 8.19508 112.99 7.6037C112.646 7.01231 112.171 6.56533 111.566 6.26276C110.961 5.96019 110.301 5.80891 109.586 5.80891C108.513 5.80891 107.598 6.15274 106.842 6.8404C106.085 7.52805 105.666 8.49765 105.583 9.74919H113.505Z" fill="black"/>
</svg>
