<svg width="116" height="26" viewBox="0 0 116 26" fill="none" xmlns="http://www.w3.org/2000/svg">
<path d="M0.577633 12.2237C0.577633 11.0409 0.797683 10.0025 1.23778 9.10858C1.69164 8.21463 2.30365 7.52697 3.07383 7.04561C3.84401 6.56425 4.70358 6.32357 5.65255 6.32357C6.40897 6.32357 7.09663 6.48173 7.71552 6.79805C8.34817 7.11438 8.84328 7.54072 9.20086 8.0771V2.734H12.7285V18H9.20086V16.3496C8.87079 16.8997 8.3963 17.3398 7.77741 17.6699C7.17227 18 6.46398 18.165 5.65255 18.165C4.70358 18.165 3.84401 17.9244 3.07383 17.443C2.30365 16.9479 1.69164 16.2533 1.23778 15.3594C0.797683 14.4517 0.577633 13.4064 0.577633 12.2237ZM9.20086 12.2443C9.20086 11.3641 8.95331 10.6696 8.45819 10.1607C7.97683 9.65183 7.38545 9.3974 6.68403 9.3974C5.98262 9.3974 5.38436 9.65183 4.88925 10.1607C4.40789 10.6558 4.16721 11.3435 4.16721 12.2237C4.16721 13.1039 4.40789 13.8053 4.88925 14.3279C5.38436 14.8368 5.98262 15.0912 6.68403 15.0912C7.38545 15.0912 7.97683 14.8368 8.45819 14.3279C8.95331 13.819 9.20086 13.1245 9.20086 12.2443ZM26.1319 12.0586C26.1319 12.3887 26.1113 12.7325 26.07 13.0901H18.0863C18.1413 13.8053 18.3683 14.3554 18.7671 14.7405C19.1797 15.1118 19.6817 15.2975 20.2731 15.2975C21.1533 15.2975 21.7653 14.9262 22.1091 14.1835H25.8637C25.6712 14.9399 25.3205 15.6207 24.8116 16.2258C24.3165 16.831 23.6907 17.3055 22.9343 17.6493C22.1779 17.9931 21.3321 18.165 20.3968 18.165C19.2691 18.165 18.2651 17.9244 17.3849 17.443C16.5047 16.9616 15.817 16.274 15.3219 15.38C14.8268 14.4861 14.5793 13.4408 14.5793 12.2443C14.5793 11.0478 14.8199 10.0025 15.3013 9.10858C15.7964 8.21463 16.4841 7.52697 17.3643 7.04561C18.2445 6.56425 19.2553 6.32357 20.3968 6.32357C21.5109 6.32357 22.5011 6.55737 23.3675 7.02498C24.234 7.49259 24.9079 8.15962 25.3892 9.02606C25.8844 9.89251 26.1319 10.9034 26.1319 12.0586ZM22.5217 11.1303C22.5217 10.5252 22.3154 10.0438 21.9028 9.68622C21.4902 9.32863 20.9745 9.14984 20.3556 9.14984C19.7642 9.14984 19.2622 9.32176 18.8496 9.66559C18.4508 10.0094 18.2032 10.4977 18.1069 11.1303H22.5217ZM35.007 6.36483C36.3549 6.36483 37.4276 6.80493 38.2253 7.68513C39.0367 8.55158 39.4424 9.74811 39.4424 11.2747V18H35.9354V11.7492C35.9354 10.979 35.736 10.3808 35.3371 9.9544C34.9383 9.52805 34.4019 9.31488 33.728 9.31488C33.0541 9.31488 32.5177 9.52805 32.1189 9.9544C31.72 10.3808 31.5206 10.979 31.5206 11.7492V18H27.9929V6.48861H31.5206V8.01521C31.8782 7.50634 32.3596 7.1075 32.9647 6.81868C33.5698 6.51611 34.2506 6.36483 35.007 6.36483ZM48.3097 15.0087V18H46.5149C45.2359 18 44.2387 17.6906 43.5236 17.0717C42.8084 16.439 42.4508 15.4144 42.4508 13.9978V9.41803H41.048V6.48861H42.4508V3.68296H45.9785V6.48861H48.2891V9.41803H45.9785V14.0391C45.9785 14.3829 46.061 14.6305 46.2261 14.7818C46.3911 14.933 46.6662 15.0087 47.0513 15.0087H48.3097ZM49.5733 12.2237C49.5733 11.0409 49.7933 10.0025 50.2334 9.10858C50.6873 8.21463 51.2993 7.52697 52.0695 7.04561C52.8396 6.56425 53.6992 6.32357 54.6482 6.32357C55.4596 6.32357 56.1679 6.48861 56.773 6.81868C57.3919 7.14876 57.8664 7.58198 58.1965 8.11836V6.48861H61.7242V18H58.1965V16.3703C57.8527 16.9066 57.3713 17.3398 56.7524 17.6699C56.1473 18 55.439 18.165 54.6275 18.165C53.6923 18.165 52.8396 17.9244 52.0695 17.443C51.2993 16.9479 50.6873 16.2533 50.2334 15.3594C49.7933 14.4517 49.5733 13.4064 49.5733 12.2237ZM58.1965 12.2443C58.1965 11.3641 57.9489 10.6696 57.4538 10.1607C56.9725 9.65183 56.3811 9.3974 55.6797 9.3974C54.9782 9.3974 54.38 9.65183 53.8849 10.1607C53.4035 10.6558 53.1628 11.3435 53.1628 12.2237C53.1628 13.1039 53.4035 13.8053 53.8849 14.3279C54.38 14.8368 54.9782 15.0912 55.6797 15.0912C56.3811 15.0912 56.9725 14.8368 57.4538 14.3279C57.9489 13.819 58.1965 13.1245 58.1965 12.2443ZM67.804 2.734V18H64.2763V2.734H67.804ZM70.0716 12.3681C70.0716 11.1991 70.3054 10.1813 70.773 9.31488C71.2407 8.43468 71.887 7.76077 72.7122 7.29317C73.5374 6.81181 74.4795 6.57113 75.5385 6.57113C76.9276 6.57113 78.0691 6.91495 78.963 7.60261C79.8708 8.29027 80.4553 9.22549 80.7166 10.4083H79.1693C78.9768 9.59682 78.5573 8.96418 77.9109 8.51032C77.2783 8.04271 76.4875 7.80891 75.5385 7.80891C74.7821 7.80891 74.1013 7.98082 73.4962 8.32465C72.891 8.66848 72.4097 9.18423 72.0521 9.87188C71.7083 10.5458 71.5363 11.3779 71.5363 12.3681C71.5363 13.3583 71.7083 14.1973 72.0521 14.8849C72.4097 15.5726 72.891 16.0883 73.4962 16.4321C74.1013 16.776 74.7821 16.9479 75.5385 16.9479C76.4875 16.9479 77.2783 16.721 77.9109 16.2671C78.5573 15.7995 78.9768 15.1531 79.1693 14.3279H80.7166C80.4553 15.4832 79.8708 16.4115 78.963 17.1129C78.0553 17.8143 76.9138 18.165 75.5385 18.165C74.4795 18.165 73.5374 17.9312 72.7122 17.4636C71.887 16.9823 71.2407 16.3084 70.773 15.4419C70.3054 14.5617 70.0716 13.5371 70.0716 12.3681ZM82.7235 12.3475C82.7235 11.1922 82.9504 10.1813 83.4042 9.31488C83.8719 8.43468 84.5114 7.76077 85.3228 7.29317C86.148 6.81181 87.0763 6.57113 88.1078 6.57113C89.1806 6.57113 90.102 6.81868 90.8722 7.3138C91.6561 7.80891 92.22 8.44156 92.5639 9.21173V6.73616H94.0079V18H92.5639V15.5038C92.2063 16.274 91.6355 16.9135 90.8516 17.4224C90.0814 17.9175 89.1599 18.165 88.0872 18.165C87.0695 18.165 86.148 17.9244 85.3228 17.443C84.5114 16.9616 83.8719 16.2809 83.4042 15.4007C82.9504 14.5205 82.7235 13.5027 82.7235 12.3475ZM92.5639 12.3681C92.5639 11.4604 92.3782 10.6627 92.0068 9.97503C91.6355 9.28737 91.1266 8.75788 90.4802 8.38654C89.8476 8.01521 89.1462 7.82954 88.376 7.82954C87.5783 7.82954 86.8632 8.00833 86.2305 8.36591C85.5979 8.7235 85.0959 9.24611 84.7246 9.93377C84.367 10.6077 84.1882 11.4122 84.1882 12.3475C84.1882 13.2689 84.367 14.0803 84.7246 14.7818C85.0959 15.4694 85.5979 15.9989 86.2305 16.3703C86.8632 16.7278 87.5783 16.9066 88.376 16.9066C89.1462 16.9066 89.8476 16.721 90.4802 16.3496C91.1266 15.9783 91.6355 15.4488 92.0068 14.7611C92.3782 14.0735 92.5639 13.2758 92.5639 12.3681ZM98.7487 8.73725C99.0651 8.03584 99.5464 7.49259 100.193 7.1075C100.853 6.72241 101.658 6.52987 102.607 6.52987V8.03584H102.215C101.169 8.03584 100.33 8.31778 99.6977 8.88166C99.0651 9.44554 98.7487 10.3876 98.7487 11.7079V18H97.3047V6.73616H98.7487V8.73725ZM114.97 11.7904C114.97 12.2856 114.956 12.6638 114.929 12.9251H105.583C105.625 13.7778 105.831 14.5067 106.202 15.1118C106.574 15.717 107.062 16.1777 107.667 16.494C108.272 16.7966 108.932 16.9479 109.648 16.9479C110.583 16.9479 111.367 16.721 111.999 16.2671C112.646 15.8132 113.072 15.2012 113.278 14.4311H114.805C114.53 15.5313 113.939 16.4321 113.031 17.1336C112.137 17.8212 111.009 18.165 109.648 18.165C108.589 18.165 107.64 17.9312 106.801 17.4636C105.962 16.9823 105.302 16.3084 104.82 15.4419C104.353 14.5617 104.119 13.5371 104.119 12.3681C104.119 11.1991 104.353 10.1745 104.82 9.29425C105.288 8.41405 105.941 7.74014 106.78 7.27254C107.619 6.80493 108.575 6.57113 109.648 6.57113C110.72 6.57113 111.655 6.80493 112.453 7.27254C113.265 7.74014 113.884 8.37279 114.31 9.17047C114.75 9.9544 114.97 10.8277 114.97 11.7904ZM113.505 11.7492C113.519 10.9102 113.347 10.1951 112.99 9.6037C112.646 9.01231 112.171 8.56533 111.566 8.26276C110.961 7.96019 110.301 7.80891 109.586 7.80891C108.513 7.80891 107.598 8.15274 106.842 8.8404C106.085 9.52805 105.666 10.4977 105.583 11.7492H113.505Z" fill="black"/>
<path d="M40.0971 23.698C40.0971 23.4297 40.1507 23.1961 40.2581 22.9972C40.3654 22.7952 40.5137 22.639 40.7031 22.5285C40.8957 22.418 41.115 22.3628 41.3612 22.3628C41.6801 22.3628 41.942 22.4401 42.1472 22.5948C42.3555 22.7494 42.4928 22.9641 42.5591 23.2387H42.0951C42.0509 23.0809 41.9641 22.9562 41.8347 22.8647C41.7085 22.7731 41.5506 22.7273 41.3612 22.7273C41.115 22.7273 40.9162 22.8126 40.7647 22.983C40.6132 23.1503 40.5374 23.3886 40.5374 23.698C40.5374 24.0104 40.6132 24.2519 40.7647 24.4224C40.9162 24.5928 41.115 24.678 41.3612 24.678C41.5506 24.678 41.7085 24.6339 41.8347 24.5455C41.961 24.4571 42.0478 24.3308 42.0951 24.1667H42.5591C42.4897 24.4318 42.3508 24.6449 42.1425 24.8059C41.9341 24.9637 41.6737 25.0426 41.3612 25.0426C41.115 25.0426 40.8957 24.9874 40.7031 24.8769C40.5137 24.7664 40.3654 24.6102 40.2581 24.4082C40.1507 24.2061 40.0971 23.9694 40.0971 23.698ZM45.4351 22.4054V25H45.0042V24.6165C44.9222 24.7491 44.8069 24.8532 44.6586 24.929C44.5134 25.0016 44.3524 25.0379 44.1757 25.0379C43.9736 25.0379 43.7921 24.9968 43.6312 24.9148C43.4702 24.8296 43.3423 24.7033 43.2477 24.536C43.1561 24.3687 43.1103 24.1651 43.1103 23.9252V22.4054H43.5365V23.8684C43.5365 24.1241 43.6012 24.3214 43.7306 24.4602C43.86 24.596 44.0368 24.6638 44.2609 24.6638C44.4913 24.6638 44.6728 24.5928 44.8054 24.4508C44.9379 24.3087 45.0042 24.102 45.0042 23.8305V22.4054H45.4351ZM46.3851 21.984C46.303 21.984 46.2336 21.9556 46.1768 21.8988C46.1199 21.842 46.0915 21.7725 46.0915 21.6904C46.0915 21.6084 46.1199 21.5389 46.1768 21.4821C46.2336 21.4253 46.303 21.3969 46.3851 21.3969C46.464 21.3969 46.5303 21.4253 46.5839 21.4821C46.6408 21.5389 46.6692 21.6084 46.6692 21.6904C46.6692 21.7725 46.6408 21.842 46.5839 21.8988C46.5303 21.9556 46.464 21.984 46.3851 21.984ZM46.5934 22.4054V25H46.1626V22.4054H46.5934ZM47.1668 23.6932C47.1668 23.4281 47.2204 23.1961 47.3277 22.9972C47.4351 22.7952 47.5818 22.639 47.7681 22.5285C47.9575 22.418 48.1689 22.3628 48.4025 22.3628C48.6045 22.3628 48.7923 22.4101 48.9659 22.5048C49.1395 22.5964 49.2721 22.7179 49.3637 22.8694V21.4963H49.7993V25H49.3637V24.5123C49.2784 24.667 49.1522 24.7948 48.9849 24.8958C48.8176 24.9937 48.6219 25.0426 48.3978 25.0426C48.1674 25.0426 47.9575 24.9858 47.7681 24.8722C47.5818 24.7585 47.4351 24.5991 47.3277 24.394C47.2204 24.1888 47.1668 23.9552 47.1668 23.6932ZM49.3637 23.698C49.3637 23.5023 49.3242 23.3318 49.2453 23.1866C49.1664 23.0414 49.0591 22.9309 48.9233 22.8552C48.7908 22.7763 48.644 22.7368 48.483 22.7368C48.322 22.7368 48.1753 22.7747 48.0427 22.8504C47.9101 22.9262 47.8044 23.0367 47.7255 23.1819C47.6465 23.3271 47.6071 23.4975 47.6071 23.6932C47.6071 23.8921 47.6465 24.0657 47.7255 24.214C47.8044 24.3592 47.9101 24.4713 48.0427 24.5502C48.1753 24.626 48.322 24.6638 48.483 24.6638C48.644 24.6638 48.7908 24.626 48.9233 24.5502C49.0591 24.4713 49.1664 24.3592 49.2453 24.214C49.3242 24.0657 49.3637 23.8937 49.3637 23.698ZM50.3664 23.6932C50.3664 23.4281 50.42 23.1961 50.5274 22.9972C50.6347 22.7952 50.7815 22.639 50.9677 22.5285C51.1571 22.418 51.367 22.3628 51.5974 22.3628C51.8247 22.3628 52.0219 22.4117 52.1892 22.5096C52.3565 22.6074 52.4812 22.7305 52.5633 22.8789V22.4054H52.9989V25H52.5633V24.5171C52.4781 24.6686 52.3502 24.7948 52.1798 24.8958C52.0125 24.9937 51.8168 25.0426 51.5927 25.0426C51.3622 25.0426 51.1539 24.9858 50.9677 24.8722C50.7815 24.7585 50.6347 24.5991 50.5274 24.394C50.42 24.1888 50.3664 23.9552 50.3664 23.6932ZM52.5633 23.698C52.5633 23.5023 52.5238 23.3318 52.4449 23.1866C52.366 23.0414 52.2587 22.9309 52.1229 22.8552C51.9904 22.7763 51.8436 22.7368 51.6826 22.7368C51.5216 22.7368 51.3749 22.7747 51.2423 22.8504C51.1097 22.9262 51.004 23.0367 50.9251 23.1819C50.8462 23.3271 50.8067 23.4975 50.8067 23.6932C50.8067 23.8921 50.8462 24.0657 50.9251 24.214C51.004 24.3592 51.1097 24.4713 51.2423 24.5502C51.3749 24.626 51.5216 24.6638 51.6826 24.6638C51.8436 24.6638 51.9904 24.626 52.1229 24.5502C52.2587 24.4713 52.366 24.3592 52.4449 24.214C52.5238 24.0657 52.5633 23.8937 52.5633 23.698ZM53.566 23.6932C53.566 23.4281 53.6197 23.1961 53.727 22.9972C53.8343 22.7952 53.9811 22.639 54.1673 22.5285C54.3567 22.418 54.5682 22.3628 54.8018 22.3628C55.0038 22.3628 55.1916 22.4101 55.3652 22.5048C55.5388 22.5964 55.6714 22.7179 55.7629 22.8694V21.4963H56.1985V25H55.7629V24.5123C55.6777 24.667 55.5514 24.7948 55.3841 24.8958C55.2168 24.9937 55.0211 25.0426 54.797 25.0426C54.5666 25.0426 54.3567 24.9858 54.1673 24.8722C53.9811 24.7585 53.8343 24.5991 53.727 24.394C53.6197 24.1888 53.566 23.9552 53.566 23.6932ZM55.7629 23.698C55.7629 23.5023 55.7234 23.3318 55.6445 23.1866C55.5656 23.0414 55.4583 22.9309 55.3226 22.8552C55.19 22.7763 55.0432 22.7368 54.8822 22.7368C54.7213 22.7368 54.5745 22.7747 54.4419 22.8504C54.3093 22.9262 54.2036 23.0367 54.1247 23.1819C54.0458 23.3271 54.0063 23.4975 54.0063 23.6932C54.0063 23.8921 54.0458 24.0657 54.1247 24.214C54.2036 24.3592 54.3093 24.4713 54.4419 24.5502C54.5745 24.626 54.7213 24.6638 54.8822 24.6638C55.0432 24.6638 55.19 24.626 55.3226 24.5502C55.4583 24.4713 55.5656 24.3592 55.6445 24.214C55.7234 24.0657 55.7629 23.8937 55.7629 23.698ZM58.0582 25.0426C57.8151 25.0426 57.5942 24.9874 57.3953 24.8769C57.1996 24.7664 57.045 24.6102 56.9313 24.4082C56.8209 24.203 56.7656 23.9663 56.7656 23.698C56.7656 23.4328 56.8224 23.1992 56.9361 22.9972C57.0529 22.7921 57.2107 22.6358 57.4095 22.5285C57.6084 22.418 57.8309 22.3628 58.0771 22.3628C58.3233 22.3628 58.5459 22.418 58.7447 22.5285C58.9436 22.6358 59.0998 22.7905 59.2134 22.9925C59.3302 23.1945 59.3886 23.4297 59.3886 23.698C59.3886 23.9663 59.3287 24.203 59.2087 24.4082C59.0919 24.6102 58.9325 24.7664 58.7305 24.8769C58.5285 24.9874 58.3044 25.0426 58.0582 25.0426ZM58.0582 24.6638C58.2129 24.6638 58.358 24.6275 58.4938 24.5549C58.6295 24.4823 58.7384 24.3734 58.8205 24.2282C58.9057 24.083 58.9483 23.9063 58.9483 23.698C58.9483 23.4896 58.9073 23.3129 58.8252 23.1677C58.7431 23.0225 58.6358 22.9152 58.5032 22.8457C58.3707 22.7731 58.2271 22.7368 58.0724 22.7368C57.9146 22.7368 57.7694 22.7731 57.6368 22.8457C57.5074 22.9152 57.4032 23.0225 57.3243 23.1677C57.2454 23.3129 57.2059 23.4896 57.2059 23.698C57.2059 23.9094 57.2438 24.0878 57.3196 24.233C57.3985 24.3782 57.5026 24.4871 57.6321 24.5597C57.7615 24.6291 57.9035 24.6638 58.0582 24.6638ZM61.0564 23.6932C61.0564 23.4281 61.1101 23.1961 61.2174 22.9972C61.3247 22.7952 61.4715 22.639 61.6577 22.5285C61.8471 22.418 62.0586 22.3628 62.2922 22.3628C62.4942 22.3628 62.682 22.4101 62.8556 22.5048C63.0292 22.5964 63.1618 22.7179 63.2533 22.8694V21.4963H63.6889V25H63.2533V24.5123C63.1681 24.667 63.0418 24.7948 62.8746 24.8958C62.7073 24.9937 62.5116 25.0426 62.2874 25.0426C62.057 25.0426 61.8471 24.9858 61.6577 24.8722C61.4715 24.7585 61.3247 24.5991 61.2174 24.394C61.1101 24.1888 61.0564 23.9552 61.0564 23.6932ZM63.2533 23.698C63.2533 23.5023 63.2139 23.3318 63.135 23.1866C63.056 23.0414 62.9487 22.9309 62.813 22.8552C62.6804 22.7763 62.5337 22.7368 62.3727 22.7368C62.2117 22.7368 62.0649 22.7747 61.9323 22.8504C61.7998 22.9262 61.694 23.0367 61.6151 23.1819C61.5362 23.3271 61.4968 23.4975 61.4968 23.6932C61.4968 23.8921 61.5362 24.0657 61.6151 24.214C61.694 24.3592 61.7998 24.4713 61.9323 24.5502C62.0649 24.626 62.2117 24.6638 62.3727 24.6638C62.5337 24.6638 62.6804 24.626 62.813 24.5502C62.9487 24.4713 63.056 24.3592 63.135 24.214C63.2139 24.0657 63.2533 23.8937 63.2533 23.698ZM66.7844 23.6033C66.7844 23.6853 66.7796 23.7721 66.7702 23.8637H64.6964C64.7122 24.1193 64.799 24.3198 64.9568 24.465C65.1178 24.607 65.3119 24.678 65.5391 24.678C65.7254 24.678 65.88 24.6354 66.0031 24.5502C66.1294 24.4618 66.2178 24.345 66.2683 24.1998H66.7323C66.6628 24.4492 66.524 24.6528 66.3156 24.8106C66.1073 24.9653 65.8485 25.0426 65.5391 25.0426C65.2929 25.0426 65.072 24.9874 64.8763 24.8769C64.6837 24.7664 64.5322 24.6102 64.4218 24.4082C64.3113 24.203 64.256 23.9663 64.256 23.698C64.256 23.4297 64.3097 23.1945 64.417 22.9925C64.5243 22.7905 64.6743 22.6358 64.8668 22.5285C65.0625 22.418 65.2866 22.3628 65.5391 22.3628C65.7854 22.3628 66.0031 22.4164 66.1925 22.5238C66.3819 22.6311 66.5271 22.7794 66.6281 22.9688C66.7323 23.155 66.7844 23.3665 66.7844 23.6033ZM66.3393 23.5133C66.3393 23.3492 66.303 23.2087 66.2304 23.0919C66.1578 22.972 66.0584 22.882 65.9321 22.822C65.809 22.7589 65.6717 22.7273 65.5202 22.7273C65.3024 22.7273 65.1162 22.7968 64.9615 22.9357C64.81 23.0746 64.7232 23.2671 64.7011 23.5133H66.3393ZM68.6173 22.358C68.9329 22.358 69.1886 22.4543 69.3843 22.6469C69.58 22.8362 69.6778 23.1109 69.6778 23.4707V25H69.2517V23.5322C69.2517 23.2734 69.187 23.0761 69.0576 22.9404C68.9282 22.8015 68.7514 22.7321 68.5273 22.7321C68.3 22.7321 68.1185 22.8031 67.9828 22.9451C67.8502 23.0872 67.7839 23.2939 67.7839 23.5654V25H67.3531V22.4054H67.7839V22.7747C67.8692 22.6421 67.9844 22.5395 68.1296 22.4669C68.2779 22.3943 68.4405 22.358 68.6173 22.358ZM70.9072 22.7605V24.2898C70.9072 24.4161 70.934 24.506 70.9877 24.5597C71.0413 24.6102 71.1344 24.6354 71.267 24.6354H71.5842V25H71.196C70.9561 25 70.7762 24.9448 70.6562 24.8343C70.5363 24.7238 70.4763 24.5423 70.4763 24.2898V22.7605H70.1402V22.4054H70.4763V21.752H70.9072V22.4054H71.5842V22.7605H70.9072ZM71.9453 23.6932C71.9453 23.4281 71.999 23.1961 72.1063 22.9972C72.2136 22.7952 72.3604 22.639 72.5466 22.5285C72.736 22.418 72.9459 22.3628 73.1763 22.3628C73.4036 22.3628 73.6009 22.4117 73.7682 22.5096C73.9354 22.6074 74.0601 22.7305 74.1422 22.8789V22.4054H74.5778V25H74.1422V24.5171C74.057 24.6686 73.9291 24.7948 73.7587 24.8958C73.5914 24.9937 73.3957 25.0426 73.1716 25.0426C72.9412 25.0426 72.7328 24.9858 72.5466 24.8722C72.3604 24.7585 72.2136 24.5991 72.1063 24.394C71.999 24.1888 71.9453 23.9552 71.9453 23.6932ZM74.1422 23.698C74.1422 23.5023 74.1027 23.3318 74.0238 23.1866C73.9449 23.0414 73.8376 22.9309 73.7019 22.8552C73.5693 22.7763 73.4225 22.7368 73.2615 22.7368C73.1006 22.7368 72.9538 22.7747 72.8212 22.8504C72.6886 22.9262 72.5829 23.0367 72.504 23.1819C72.4251 23.3271 72.3856 23.4975 72.3856 23.6932C72.3856 23.8921 72.4251 24.0657 72.504 24.214C72.5829 24.3592 72.6886 24.4713 72.8212 24.5502C72.9538 24.626 73.1006 24.6638 73.2615 24.6638C73.4225 24.6638 73.5693 24.626 73.7019 24.5502C73.8376 24.4713 73.9449 24.3592 74.0238 24.214C74.1027 24.0657 74.1422 23.8937 74.1422 23.698ZM75.7368 21.4963V25H75.3059V21.4963H75.7368Z" fill="black"/>
</svg>
