<svg width="32" height="32" viewBox="0 0 32 32" fill="none" xmlns="http://www.w3.org/2000/svg">
<path d="M14.6666 24H17.3333V20H21.3333V17.3333H17.3333V13.3333H14.6666V17.3333H10.6666V20H14.6666V24ZM5.33329 29.3333C4.59996 29.3333 3.9724 29.0724 3.45063 28.5507C2.92796 28.028 2.66663 27.4 2.66663 26.6667V10.6667C2.66663 9.93333 2.92796 9.30578 3.45063 8.784C3.9724 8.26133 4.59996 8 5.33329 8H10.6666V5.33333C10.6666 4.6 10.928 3.972 11.4506 3.44933C11.9724 2.92756 12.6 2.66667 13.3333 2.66667H18.6666C19.4 2.66667 20.028 2.92756 20.5506 3.44933C21.0724 3.972 21.3333 4.6 21.3333 5.33333V8H26.6666C27.4 8 28.028 8.26133 28.5506 8.784C29.0724 9.30578 29.3333 9.93333 29.3333 10.6667V26.6667C29.3333 27.4 29.0724 28.028 28.5506 28.5507C28.028 29.0724 27.4 29.3333 26.6666 29.3333H5.33329ZM5.33329 26.6667H26.6666V10.6667H5.33329V26.6667ZM13.3333 8H18.6666V5.33333H13.3333V8Z" fill="#2C2C2C"/>
</svg>
