<svg width="83" height="83" viewBox="0 0 83 83" fill="none" xmlns="http://www.w3.org/2000/svg">
<circle cx="41.5" cy="41.5" r="41" fill="white" stroke="black"/>
<path d="M39.1627 27.9345C41.9172 27.9345 44.3244 28.4805 46.384 29.5724C48.4437 30.6642 50.0319 32.2028 51.1486 34.188C52.2901 36.1485 52.8609 38.4191 52.8609 40.9999C52.8609 43.5559 52.2901 45.8265 51.1486 47.8117C50.0319 49.797 48.4313 51.3355 46.3468 52.4274C44.2871 53.5193 41.8924 54.0652 39.1627 54.0652H29.373V27.9345H39.1627ZM38.7533 48.5562C41.1604 48.5562 43.0339 47.8986 44.374 46.5834C45.714 45.2682 46.384 43.407 46.384 40.9999C46.384 38.5928 45.714 36.7192 44.374 35.3792C43.0339 34.0392 41.1604 33.3691 38.7533 33.3691H35.7382V48.5562H38.7533Z" fill="black"/>
</svg>
