<svg width="48" height="48" viewBox="0 0 48 48" fill="none" xmlns="http://www.w3.org/2000/svg">
<path d="M31.05 16.9101C30.1332 15.984 29.0412 15.2497 27.8377 14.7501C26.6341 14.2505 25.3432 13.9955 24.04 14.0001C18.58 14.0001 14.13 18.4501 14.13 23.9101C14.13 25.6601 14.59 27.3601 15.45 28.8601L14.05 34.0001L19.3 32.6201C20.75 33.4101 22.38 33.8301 24.04 33.8301C29.5 33.8301 33.9501 29.3801 33.9501 23.9201C33.9501 21.2701 32.92 18.7801 31.05 16.9101ZM24.04 32.1501C22.56 32.1501 21.11 31.7501 19.84 31.0001L19.54 30.8201L16.42 31.6401L17.25 28.6001L17.05 28.2901C16.2278 26.977 15.7912 25.4593 15.79 23.9101C15.79 19.3701 19.49 15.6701 24.03 15.6701C26.23 15.6701 28.3 16.5301 29.85 18.0901C30.6175 18.854 31.2257 19.7627 31.6394 20.7635C32.0531 21.7642 32.2641 22.8372 32.26 23.9201C32.2801 28.4601 28.58 32.1501 24.04 32.1501ZM28.56 25.9901C28.31 25.8701 27.09 25.2701 26.87 25.1801C26.64 25.1001 26.48 25.0601 26.31 25.3001C26.14 25.5501 25.67 26.1101 25.53 26.2701C25.39 26.4401 25.24 26.4601 24.99 26.3301C24.74 26.2101 23.94 25.9401 23 25.1001C22.26 24.4401 21.77 23.6301 21.62 23.3801C21.48 23.1301 21.6 23.0001 21.73 22.8701C21.84 22.7601 21.98 22.5801 22.1 22.4401C22.22 22.3001 22.27 22.1901 22.35 22.0301C22.43 21.8601 22.39 21.7201 22.33 21.6001C22.27 21.4801 21.77 20.2601 21.57 19.7601C21.37 19.2801 21.16 19.3401 21.01 19.3301H20.53C20.36 19.3301 20.1 19.3901 19.87 19.6401C19.65 19.8901 19.01 20.4901 19.01 21.7101C19.01 22.9301 19.9 24.1101 20.02 24.2701C20.14 24.4401 21.77 26.9401 24.25 28.0101C24.84 28.2701 25.3 28.4201 25.66 28.5301C26.25 28.7201 26.79 28.6901 27.22 28.6301C27.7 28.5601 28.69 28.0301 28.89 27.4501C29.1 26.8701 29.1 26.3801 29.03 26.2701C28.96 26.1601 28.81 26.1101 28.56 25.9901Z" fill="black"/>
<circle cx="24" cy="24" r="23.5" stroke="black"/>
</svg>
